<?xml version="1.0" encoding="UTF-8"?>
<svg id="Layer_1" data-name="Layer 1" xmlns="http://www.w3.org/2000/svg" viewBox="0 0 503.31 293.02">
  <defs>
    <style>
      .cls-1 {
        fill: #4a90e2;
      }
    </style>
  </defs>
  <path class="cls-1" d="M467.11,96.11c-1.23,5.69-11.67,5.33-16.15,4.9-9.73-.92-7.76-7.28-7.85-15.03-8.58,9.87-22.57,4.69-34.02,6.1l-.86.64c-8.3,25.53-32.46,44.24-59.21,46.54l-321.02-.04c-15-2.34-26.3-14.26-27.41-29.59-1.86-25.45,1.48-53.12,0-78.81C2.22,15.6,14.74,3.03,30.21,1.96l319.43.12c27.2,2.97,49.84,21.15,58.94,46.81,11.51,1.92,25.75-3.53,34.52,6.34,1.59-7.71-3.22-12.34-5.25-19.11-2.08-6.91-4.07-24.4.74-30.03,7.14-8.34,25.61-7.91,33.05-.02,5.49,5.82,2.61,25.01-.03,32.3-2.48,6.85-6.24,10.76-4.5,19.11,15.34-14.67,38.93-4.25,35.93,17.56-1.57,11.4-16.77,19.79-27.21,14.59l-8.72-5.15c-.49,3.4.67,8.5,0,11.62ZM453.44,10.43c-8.26,1.01-7.83,7.32-7.23,14.34.28,3.24,3.05,15.61,6.27,16.22,7.56,1.43,8.61-3.01,10.22-9.28,2.41-9.37,4.57-22.98-9.27-21.28ZM404.49,80.74c8.05-1.42,20,1.06,28.5,0l1.12-1.12v-18l-1.12-1.12h-30c-2.87,0-5.59-10.83-6.77-13.48-9.04-20.16-28.28-32.73-50.24-34.51H32.5c-11.04.92-18.59,6.97-21.21,17.8,1.35,25.28-2.43,53.63-.17,78.56.94,10.39,8.6,18.84,19.12,19.88h317.23c22.49-2.09,40.06-15.18,49.27-35.48,1.92-4.22,2.14-11.52,7.74-12.51ZM456.61,51.48h-2.99v6.01h2.99v-6.01ZM479.67,61.42c-8.97,2.32-8.18,17.74,2.27,19.17,14.46,1.98,14.75-23.56-2.27-19.17ZM463.36,67.99h-18.75v6h18.75v-6ZM456.61,83.73h-2.99v6.76h2.99v-6.76Z"/>
  <path class="cls-1" d="M467.11,250.61c-1.15,5.09-13.57,4.62-17.64,4.14-7.95-.94-6.33-9.04-6.37-15.01-1.18.18-1.07,1.62-2.27,2.59-7.96,6.42-22.1,2.11-31.74,3.51l-.86.64c-8.3,25.53-32.46,44.24-59.21,46.54l-321.02-.04c-15-2.34-26.3-14.26-27.41-29.59-1.86-25.45,1.48-53.12,0-78.81,1.96-15.91,15.06-28.06,31.12-28.88l315.77.04c28.33,2.41,52.25,20.92,61.26,47.86,11.35,1.71,25.75-3.94,34.37,5.38,1.59-7.71-3.22-12.34-5.25-19.11-2.38-7.92-3.25-18.5-.98-26.5,1.49-5.23,12.05-9.79,17.15-9.91,5.54-.13,17.86,4.01,19.5,9.74,2.52,8.8,1.1,20.96-2.09,29.48-2.47,6.61-6.05,10.31-4.31,18.55,15.37-14.68,38.93-4.22,35.93,17.56-1.57,11.4-16.77,19.79-27.21,14.59l-8.72-5.15c-.54,3.56.74,9.12,0,12.38ZM452.67,164.17c-9.58,1.54-6.86,15.55-4.84,22.48,1.75,6,2.84,9.42,9.91,8.09,3.24-.61,6.07-12.23,6.36-15.39.85-9.27.22-17.06-11.43-15.18ZM434.11,233.36v-18l-1.12-1.12h-30c-2.87,0-5.59-10.83-6.77-13.48-9.04-20.16-28.28-32.73-50.24-34.51-106.4.61-213.02-1.27-319.28.95-8.4,2.37-14.27,9.55-15.59,18.16,1.66,24.92-2.21,52.67.02,77.24.97,10.64,8.97,19.23,19.84,19.91l316.52-.04c22.85-2.15,40.22-15.38,49.5-36,1.3-2.9,2-8.91,4.6-10.4,4.6-2.65,23.28.41,29.9-.85.88-.17,2.44-1.11,2.64-1.86ZM456.61,205.23h-2.99v6.01h2.99v-6.01ZM490.11,217.49c-7.95-7.95-22.15,2.53-14.75,12.88,8.16,11.41,24.4-3.23,14.75-12.88ZM463.36,221.74h-18.75v6h18.75v-6ZM456.61,237.48h-2.99v6.76h2.99v-6.76Z"/>
  <rect class="cls-1" x="453.61" y="83.73" width="2.99" height="6.76"/>
  <rect class="cls-1" x="453.61" y="51.48" width="2.99" height="6.01"/>
  <rect class="cls-1" x="453.61" y="237.48" width="2.99" height="6.76"/>
  <rect class="cls-1" x="453.61" y="205.23" width="2.99" height="6.01"/>
  <path class="cls-1" d="M255.39,106.39l78.61-.17c7.53.87,6.88,9.76.77,10.55l-78.05-.02c-6.2-.52-6.53-7.78-1.33-10.36Z"/>
  <path class="cls-1" d="M372.4,82.4c3.88-.89,7.07.49,7.05,4.71-.03,7.84-19.95,25.78-27.65,26.48-4.37.4-6.97-5.19-4.29-8.85,1.36-1.85,9.46-5.46,12.37-7.88,1.69-1.41,4.18-3.97,5.55-5.7,2.01-2.53,4.05-8.1,6.97-8.77Z"/>
  <path class="cls-1" d="M256.14,260.15l77.86-.17c7.53.87,6.88,9.76.77,10.55l-80.65-.43c-4.16-2.97-2.75-8.54,2.02-9.95Z"/>
  <path class="cls-1" d="M370.57,236.96c2.57-2.11,8.09-1.29,8.78,2.44,1.04,5.58-8.54,15.93-12.73,19.48-2.91,2.46-12.51,9.11-15.95,8.5-4.1-.73-5.6-5.51-3.16-8.87,1.05-1.45,8.88-4.89,11.62-7.13,1.86-1.52,5.23-4.9,6.72-6.78s3.66-6.76,4.73-7.64Z"/>
</svg>