<?xml version="1.0" encoding="UTF-8"?>
<svg id="Layer_1" data-name="Layer 1" xmlns="http://www.w3.org/2000/svg" viewBox="0 0 930.08 774.53">
  <defs>
    <style>
      .cls-1 {
        fill: #4a90e2;
      }
    </style>
  </defs>
  <path class="cls-1" d="M574.04,381.04h-16v-77h-17v19.5c0,6.67-7.19,11.95-13.46,12.54-39.89,3.75-85.56-2.9-126.06-.02-3.85.55-11.48-6.46-11.48-9.52v-22.5h-18v77h-17V41.54c0-3.95,7.28-9.4,11.46-8.54h196.08c3.42-1.14,11.46,4.76,11.46,7.54v340.5ZM558.04,50.04h-186v48h16.5l1.5-1.5v-23c0-3.06,7.63-10.07,11.48-9.52l130.25.79c4.77,1.56,9.27,7.85,9.27,12.73v20.5h17v-48ZM524.04,80.04h-118v50h118v-50ZM390.04,114.04h-18v78h18v-23.5c0-3.06,7.63-10.07,11.48-9.52l129.55.49c4.37,1.14,9.97,7.59,9.97,12.03v20.5h17v-78h-17v19.5c0,6.67-7.19,11.95-13.46,12.54-39.89,3.75-85.56-2.9-126.06-.02-3.93.18-11.48-5.84-11.48-9.52v-22.5ZM524.04,175.04h-118v50h118v-50ZM390.04,209.04h-18v78h18v-24.5c0-1.73,7.55-9.41,10.48-8.52l132.25.79c4.29.95,8.27,7.89,8.27,11.73v20.5h17v-78h-18c.86,9.73,3.96,29.85-9.56,31.94l-129.96.09c-2.93.89-10.48-6.8-10.48-8.52v-23.5ZM524.04,270.04h-118v50h118v-50Z"/>
  <path class="cls-1" d="M22.04,492.04c-10.36,1.62-19.81-2.71-22.02-13.48l-.02-457.06C1,9.68,11.93.55,23.5,0l254.95.12c10.86,1.97,18.83,10.62,20.59,21.41l-.09,456.91c-2.12,11.53-12.21,14.93-22.92,13.58-.41,5.78.51,21.77-2.52,25.98-1.84,2.56-4.03,2.81-6.93,3.07-7.83.72-29.67,1.05-36.99-.1-2.44-.38-7.56-4.3-7.56-6.44v-22.5H76.04v20.5c0,1.1-3.99,6.92-5.95,7.05-12.23.4-26.15,2.95-38.29,1.19-2.88-.42-9.76-2.8-9.76-6.24v-22.5ZM283.04,476.04V21.54c0-.41-4.84-5.36-6.45-4.55H23.48c-2.53-1.19-7.44,3.94-7.44,5.55v453.5h267ZM61.04,505.04c-.58-4.15,1.5-9.82-1.5-13h-21.5v13h23ZM260.04,492.04h-22v13h22v-13Z"/>
  <path class="cls-1" d="M908.04,492.04v21.5c0,3.39-6.28,6.26-9.45,6.55-7.87.72-29.62,1.04-36.99-.11-2.24-.35-6.56-3.35-6.56-5.44v-22.5h-148v21.5c0,3.05-5.45,6.96-8.56,7.44-6.74,1.03-25.83.77-32.97.1-4.36-.41-11.46-3.46-11.46-8.54v-20.5c-12.52,1.67-22.07-2.08-24-15.5l-.04-453.05c.2-12.14,8.29-22.13,20.54-23.46l256.05-.04c12.38.33,22.37,8.97,23.5,21.5l-.04,456.04c-1.49,11.4-11.21,16.19-22,14.5ZM646.04,476.04h263.5c2.26,0,5.24-5.01,4.55-7.45l-.57-447.52-3.5-3.5-256.54-.58c-2.53-1.18-7.44,3.95-7.44,5.56v453.5ZM691.04,492.04h-20.5c-3.48,3.49-.42,8.81-.5,13h21v-13ZM892.04,492.04h-22v13h22v-13Z"/>
  <path class="cls-1" d="M530.04,391.04h37.5c13.65,0,30.63,17.66,30.48,31.52l-.83,326.13c-4.38,15.19-16.01,23.31-31.6,24.4-65.73,4.58-136.75-3.51-203.03-.06-14.98-1.34-26.05-10.67-29.81-25.19l-.69-327.28c.7-13.52,17.2-29.51,30.49-29.51h37.5v-25.5c0-6.71,13.49-17.83,20.61-17.39,27.73,1.6,58.56-2.51,85.92-.15,11.29.98,23.46,10.46,23.46,22.54v20.5ZM514.04,391.04v-20.5c0-2.82-4.65-5.29-7.44-5.56-26.47-2.59-57.16,2.08-84.08.04-2.46-.59-7.48,3.62-7.48,5.52v20.5h99ZM582.04,701.04v-279.5c0-.37-2.99-5.66-3.56-6.44-3.64-5-8.87-7.38-14.95-8.05l-197.02-.05c-8.14-.67-19.46,8.41-19.46,16.54v277.5h235ZM582.04,716.04h-235v27.5c0,.37,3.03,5.77,3.55,6.45,2.79,3.61,7.16,5.35,11.4,6.6l203.55.46c5.09-.73,9.83-2.95,12.93-7.07.55-.73,3.56-6.07,3.56-6.44v-27.5Z"/>
  <path class="cls-1" d="M607.04,403.04c-4.94-5.02-9.15-11.23-15.79-14.2l-.73-367.78-3.5-3.5-244.03-.07-4.5,4.5-.44,365.56-16.01,16.49V19.54c0-.5,3.17-8.15,3.79-9.21C329.5,4.13,338.37.02,345.5,0l240.03.05c7.55.94,14.74,4.65,18.55,11.45.52.92,2.96,6.65,2.96,7.04v384.5Z"/>
  <path class="cls-1" d="M158.04,605.04v24h123c-3.93-4.61-14.29-12.73-6.53-19.03,7.6-6.18,20.45,9.75,25.56,15.5,3.31,3.72,9.11,8.73,7.54,13.58-.6,1.84-23.54,25.21-25.27,25.74-5.22,1.59-10.35-1.95-10.35-7.29s7.56-9.07,10.05-13.5h-130.5c-2.83,0-8.5-6.62-8.5-9.5v-28.5c-4.71,2.89-7.13,9.34-13.48,9.07-5.49-.23-8.48-5.13-7.33-10.34.41-1.86,11.94-14.33,14.29-16.74,4.09-4.19,10.85-13.39,16.57-11.55,2.11.68,20.06,19.51,22.46,22.55,3.34,4.23,7.24,9.4,2.01,14.03-8.09,7.18-14.19-3.48-19.52-8.02Z"/>
  <path class="cls-1" d="M787.23,603.03v31.5c0,1.87-6.42,7.5-8.5,7.5h-130.5c3.55,5.46,12.88,9.51,8.78,17.28-2.81,5.32-8.55,4.4-12.8,1.24-2.21-1.64-20.1-19.35-21.03-20.96-2.06-3.56-1.14-6.9,1.05-10.06,1.54-2.22,21.18-21.83,22.7-22.29,8.54-2.57,13.59,4.71,9.15,12.15-1.73,2.9-5.25,4.62-6.85,7.64h124v-24l-9.63,8.87c-6.45,3.79-13.52-1.08-12.36-8.3.41-2.56,12.26-15.33,14.96-18.1,5.29-5.43,11.68-15.57,19.07-9.02,3.87,3.43,19.34,20.09,21.96,24.04s2.29,8.22-1.94,11.07c-8.33,5.63-11.93-4.73-18.07-8.56Z"/>
  <path class="cls-1" d="M623.48,686.1c-1.95-2.94-2.33-6.42-.49-9.61"/>
  <path class="cls-1" d="M422.81,93.22c14.14-1.7,17.74,19.81,5.53,22.6-18.53,4.23-19.68-20.9-5.53-22.6Z"/>
  <path class="cls-1" d="M416.38,208.71c-10.19-9.73,3.84-26.54,15.18-17.68,12.18,9.52-3.47,28.85-15.18,17.68Z"/>
  <path class="cls-1" d="M422.81,283.22c16.35-1.97,17.26,23.68,1.73,23.68-14.32,0-15.29-22.05-1.73-23.68Z"/>
  <path class="cls-1" d="M41.78,33.28l214.79-.26c3.94.13,6.69,3.28,8.72,6.28l.8,413.29c.24,3.88-2.12,6.83-5.31,8.69l-218.29.81c-3.88.24-6.83-2.12-8.69-5.31l-.31-416.8c1.67-3.31,4.52-6.07,8.29-6.71ZM250.04,50.04H49.04v47h19v-24.5c0-2.44,8.26-9.08,11.48-8.52l145.35.7c3.87.45,9.17,7.57,9.17,10.83v22.5h14.5l1.5-1.5v-46.5ZM218.04,80.04H84.04v50h134v-50ZM68.04,114.04h-19v78h19v-23.5c0-3.06,7.63-10.07,11.48-9.52l144.55.49c4.37,1.14,9.97,7.59,9.97,12.03v20.5h16v-78h-16v19.5c0,3.92-5.14,10.7-9.16,11.84l-145.36.68c-3.85.55-11.48-6.46-11.48-9.52v-22.5ZM218.04,175.04H84.04v50h134v-50ZM68.04,209.04h-19v78h19v-23.5c0-2.9,7.56-10.54,11.5-9.5l145.53.47c4.24,1.08,8.97,6.82,8.97,11.03v21.5h16v-78h-16v20.5c0,3.67-5.05,10.27-8.97,11.03l-145.53.47c-4.08.66-11.5-6.02-11.5-9.5v-22.5ZM218.04,270.04H84.04v50h134v-50ZM68.04,304.04h-19v78h19v-23.5c0-.29,2.45-4.29,3-5,3.59-4.56,7.93-5.13,13.46-5.54,43.88-3.25,91.74,2.52,136.05.04,4.76-.13,13.5,5.56,13.5,10.5v23.5h16v-78h-16v20.5c0,3.94-5.14,9.97-9.17,10.83l-145.35.7c-3.85.55-11.48-6.46-11.48-9.52v-22.5ZM218.04,365.04H84.04v49h134v-49ZM68.04,398.04h-19v48h201v-48h-16v21.5c0,3.37-5.42,9.3-8.97,10.03l-145.55.49c-3.85.55-11.48-6.46-11.48-9.52v-22.5Z"/>
  <path class="cls-1" d="M671.78,33.28l215.79-.26c3.94.13,6.69,3.28,8.72,6.28l.81,412.29c.04,3.34-2.16,8.35-5.3,9.7l-219.3.8c-3.88.24-6.83-2.12-8.69-5.31l-.31-416.8c1.67-3.31,4.52-6.07,8.29-6.71ZM881.04,50.04h-201v48h16.5c3.73-4.34.42-11.62.42-16.5,0-8.24,3.04-15.42,11.65-17.44l141.94-.07c4.99-.32,12.5,5.64,12.5,10.5v22.5h18v-47ZM847.04,80.04h-133v50h133v-50ZM698.04,114.04h-18v78h18c1.04-12.15-5.7-29.05,10.59-32.91l142.93-.11c4.6-.19,11.48,6.35,11.48,10.52v22.5h18v-78h-18v22.5c0,3.06-7.63,10.07-11.48,9.52l-142.96-.09c-15.78-4.04-9.63-19.91-10.56-31.94ZM847.04,175.04h-133v50h133v-50ZM698.04,209.04h-18v78h18v-24.5c0-2.99,6.83-9.01,10.48-8.52l143.07-.02c4.02-1.09,11.45,6.42,11.45,9.55v23.5h18v-78h-18v21.5c0,3.37-5.42,9.3-8.97,10.03l-144.53.47c-3.33,1.02-11.5-6.2-11.5-8.5v-23.5ZM847.04,270.04h-133v50h133v-50ZM698.04,304.04h-18v78h16.5l1.5-1.5v-23c0-3.72,8.31-10.15,12.5-9.5,44.53,2.95,94.11-3.92,138.04-.04,5.05.45,14.46,4.97,14.46,10.54v22l1.5,1.5h16.5v-78h-18v21.5c0,3.37-5.42,9.3-8.97,10.03l-144.53.47c-3.33,1.02-11.5-6.2-11.5-8.5v-23.5ZM847.04,365.04h-133v49h133v-49ZM698.04,398.04h-18v48h201v-48h-18v22.5c0,2.35-6.07,8.67-8.97,9.03l-145.55.49c-2.93.89-10.48-6.8-10.48-8.52v-23.5Z"/>
  <path class="cls-1" d="M479.04,533.04h48.5c2.31,0,5.75,4.88,4.58,7.51l-90.68,130.38c-6.89,3.26-13.06-.53-11.39-8.38l17.99-77.51h-46.5c-2.26,0-4.73-7.15-3.45-9.45l92.57-134.42c4.4-3.16,11.7.61,11.19,6.12l-22.81,85.75ZM509.04,548.04h-40.5c-.63,0-4.57-3.11-4.99-4.01-3.66-8.09,9.44-40.98,10.76-51.21l-.27-2.76-54.01,79.99h41.5c1.66,0,6.25,4.82,5.29,7.23-4.23,16.03-8.92,31.96-13.07,48-.25.96-1.69,2.98.27,2.76l55.01-79.99Z"/>
  <path class="cls-1" d="M94.38,96.38c11.85-11.32,27.11,8.35,15.18,17.68-11.29,8.83-25.55-7.77-15.18-17.68Z"/>
  <path class="cls-1" d="M101.81,188.28c18.78-1.02,12.95,31.1-4.47,21.96-11.1-5.83-6.48-21.36,4.47-21.96Z"/>
  <path class="cls-1" d="M94.38,286.38c11.25-10.58,27.58,7.8,15.18,17.68-11.85,9.45-25.37-8.1-15.18-17.68Z"/>
  <path class="cls-1" d="M98.75,378.26c16.68-3.85,20.07,19.09,6.36,22.36-15.52,3.7-19.04-19.43-6.36-22.36Z"/>
  <path class="cls-1" d="M731.7,188.39c18.28-.64,13.9,29.32-3.85,22.34-11.09-4.36-8.28-21.91,3.85-22.34Z"/>
  <path class="cls-1" d="M731.8,283.27c11.86-.66,16.7,16.65,5.95,21.98-16.9,8.37-24.41-20.95-5.95-21.98Z"/>
  <path class="cls-1" d="M731.82,93.25c10.76-.64,16.9,16.14,5.92,21.98-17.52,9.32-24.2-20.89-5.92-21.98Z"/>
  <path class="cls-1" d="M728.75,378.26c19.06-4.4,19.46,24.69,1.9,22.71-12.81-1.44-12.53-20.26-1.9-22.71Z"/>
</svg>