<?xml version="1.0" encoding="UTF-8"?>
<svg id="Layer_1" data-name="Layer 1" xmlns="http://www.w3.org/2000/svg" viewBox="0 0 709.66 669.61">
  <defs>
    <style>
      .cls-1 {
        fill: #4a90e2;
      }
    </style>
  </defs>
  <path class="cls-1" d="M4.55,645.57c-2.37-.68-3.34-5.25-3.55-7.45-3.15-34.13,3.05-70.18-1-104l.5-277.6,4.5-4.5c101.12-1.02,202.41-.2,303.6-.4,71.38-.14,143.7-.07,214.91-1.09,6.16-.09,30.9-1.1,34.3,2.28l2.24,390.27-.94,2.06c-6.07.93-12.42.29-18.6.39-2.38.04-4.53,1.09-6.91,1.08-4.28-.02-10-2.1-14.88-1-3.42-3.63-.73-8.44-.62-12.5,2.84-111.6-1.97-222.05,0-334.08l-2.26-8.25-8.24-1.25-462.29.8c-.74.32-3.26,2.36-3.26,2.74v351l-1.5,1.5H4.55Z"/>
  <path class="cls-1" d="M490.05,65.57c-1.52,1.47,4.94,10.55,5.88,12.62,11.39,25.19,14.78,52.52,17.11,79.89l2.94,64.06c2.33,1,7.69-.38,9.07,2.18s1.88,13.08-.99,14.77c-1.45.85-30.06.97-33.56.54-.83-.1-1.78.03-2.52-.48l-.8-1.2c.05-4.47-1.93-13.49,3.58-15.14,1.76-.53,7.86.11,8.32-1.88l-1-50.88c-.89-29.14-9.73-103.07-41.36-114.64-26.14-9.57-39.51,13.58-48.86,33.51-6.18,13.16-11.74,28.35-13.82,42.68h25.5c2.31,0,5.74,3.25,6.28,5.72.8,3.6.67,24.02-.54,27.03-.67,1.66-3.47,4.28-5.19,4.81l-230.5.39c-3.46-.77-6.13-2.74-6.61-6.39-.59-4.51-.58-19.57.11-23.99.35-2.24,3.35-6.56,5.44-6.56h24c2.14-2.3-.05-8.11-.79-11.21-4.84-20.25-20.46-59.39-41.74-66.26-27.06-8.74-40.7,17.48-43.85,40.1-6.45,46.33,25.04,85.31,36.77,127.78,1.49,2.09,10.33-1.72,13.17,3.03,2.1,3.51.43,9.47.94,13.56h-41c-.07-8.91-2.23-17.75,10-16,.06-1.43.09-2.86-.23-4.27-3.98-17.72-20.73-43.53-27.52-62.48-9.05-25.25-12.61-52.16-4.76-78.26,1.33-4.43,4.33-8.2,4.51-12.99h-42.5c-5.77,0-12.93,9.94-13.41,15.59l-.14,110.84c9.02.96,7.85,6.08,9.99,13.14,3.23.23,11.07.29,11.07,4.93v34.5c-11.05,1.87-22.29-.13-33.55-.05-7.72.05-16.42,2.88-24.24-.17l.45-35.55c1.18-2.73,7.52-2.3,10.23-3.33.36-4.36-.07-9.96,4.38-12.12,2.16-1.04,5.54-.17,5.74-3.26l.23-114.77c1.92-12.39,16.9-25.4,29.25-26.75,6.82-.74,45.62-1.04,50.56.45,1.3.39,2.96,2.4,3.46,2.4.67,0,5.6-5.72,7.02-6.81,17.88-13.75,38.74-7.44,55.92,4.03l80.03-.08c20.53-16.41,44.72-15.76,64.97.08l76-.11c20-15.36,45.44-16.64,65.08.03,30.71-2.49,66.93,3.41,96.98.02,17.61-1.99,7.96-30.94,10.72-43.28,1.64-7.36,13.87-7.33,15.55,2.02,1.14,6.37,1.01,29.97,0,36.52-1.17,7.54-6.09,13.7-12.46,17.54-1.32.79-7.99,4.2-8.8,4.2h-90.5ZM350.06,131.57c-.65-27.9-16.4-88.5-55.23-76.73-24.51,7.44-36.14,54.17-37.78,76.72h93ZM206.05,65.57c5.22,10.78,11.04,21.12,15.02,32.48s6.05,22.74,8.92,34.08l10.42.3,1.51-1.5c.79-18.62,5.68-36.23,12.67-53.33.95-2.32,6.49-11.64,5.46-13.03-.78-.22-1.2,1-1.49,1h-52.5ZM399.55,65.57c-15.62,1.82-34.52-1.36-50.5,0,10.33,20.51,16.5,42.88,17,66.01l11.39.06c4.27-18.57,9.65-36.09,17.9-53.27,1.07-2.24,7.71-12.62,6.71-13.78-1.14-.39-2.07.95-2.49,1Z"/>
  <path class="cls-1" d="M372.46,385.97c50.3-65.47,120.51-4.87,125.57,61.11,3.87,50.44-19.53,123.97-82.51,116.51-6.09-.72-11.84-10.23-18.58-13.42-4.91-2.33-13.36-2.56-16.47-4.53-1.09-.69-11.49-14.07-12.87-16.13-25.94-38.74-23.53-106.6,4.84-143.52ZM453.7,398.92c-15.17-15.54-40.72-20.56-58.98-7.18-45.44,33.3-37.07,154.76,31.72,146.72,54.93-6.42,62.44-103.5,27.26-139.54Z"/>
  <path class="cls-1" d="M571.55,344.57h57c1.07,0,7.71,2.02,9.46,2.54,32.83,9.79,55.99,40.73,65.54,72.46,15.56,51.7,2.04,120.27-48.05,148-.93.13-1.36-.43-1.95-.99-1.23-1.15-7.68-14.6-7.49-16.42,32.86-49.67,36.95-124-1.04-172.05-6.68-8.45-24.3-23.54-35.46-23.54h-38c-2.5-1.09-1.92-10,0-10Z"/>
  <path class="cls-1" d="M56.05,382.07c.11-1.27,1.47-8.74,1.93-9.07l13.09.08c.82-.41,5.19-9.19,5.55-10.5,1.71-6.19-6.41-9.16-7.15-13.97-.2-1.27,14.96-13.97,16.13-14.09,4.5-.45,6.47,8.68,10.12,10.95,1.37.45,8.94-2.25,10.61-3.12,6.38-3.33-1.67-15.92,8.09-15.69,3.69.09,10.42.54,14.03,1.01,1.59.2,3.15.72,4.61,1.39,2.68,10.81-2.89,15.37,10.31,19.77,5.38,1.79,6.88-5.16,10.15-5.24,4.16-.11,17.27,14.76,14.54,20.28-2.49,2.28-11.77,6.82-11.95,10.14-.06,1.12,2.16,9.18,2.87,10.12,1.76,2.34,6.34,2.05,8.06,4.94v19c0,.15-1.03,2.44-1.65,2.57l-7.7-1.98c-8.7,8.3,1.49,11.56,5.41,18.42-2.14,2.87-11.91,12.84-15.34,12.35-5.53-.79-9.06-13.78-17.68-7.32-3.97,2.98-.49,11.21-3.29,15.21-3.03,3.02-18.02.37-22.64.12-2.49-4.84,2.7-12.86-2.18-16.32-.97-.69-8.43-3.53-9.31-3.36-3.3,1.67-7.39,9.23-11.08,8.85l-16.51-14.53c-.41-4.95,11.22-6.13,8.71-15.78s-9.99-7.89-17.75-8.74c.32-5.04-.44-10.52,0-15.5ZM110.79,363.81c-23.15,3.93-24.71,44.32,0,48.52,38.85,6.6,38.5-55.05,0-48.52Z"/>
  <path class="cls-1" d="M243.05,299.57h120.5c2.77,0,.73,5.9.27,7.27-5.19,15.26-16.62,36.98-24.05,51.94-1.35,2.72-7.42,15.19-8.66,16.34-1.75,1.62-2.41,1.3-4.5,1.5-15.81,1.56-33.61-1.49-49.57-1.55l-33.21-69.78-.78-5.72Z"/>
  <path class="cls-1" d="M51.26,668.35c-.6-3.3-2.96-10.46.79-12.29,37.38-1.16,75.05-.18,112.55-.45,112.88-.83,225.98-.13,339.01-.09l3.02.98-.5,12.63-448.61.48-6.25-1.27Z"/>
  <path class="cls-1" d="M335.05,184.57l3.59,56.55c-.11.73-1.85,2.45-2.09,2.45h-64c-.28,0-2.33-1.03-2.53-1.69l3-55.62c.17-.67,2.27-1.69,2.53-1.69h59.5Z"/>
  <path class="cls-1" d="M193.05,307.57v108.5c0,9.83,7.52,24.85,16.29,29.71,9.22,5.11,14.06,2.75,23.21,3.79,9.07,1.03,22.05,17.75,11.06,19.06-29.7,3.53-58.78-8.35-65.3-39.81-3.81-18.35-1.31-46.51-1.21-65.71.08-15.73-1.84-37.21-.09-52.09.17-1.46.12-2.57,1.55-3.45h14.5Z"/>
  <path class="cls-1" d="M377.83,552.85c44.48-5.68,47.91,68.18,3.74,69.77-41.09,1.47-45.13-64.48-3.74-69.77ZM394.05,571.57l-19.74,9.24-8.25,21.75c.98.95,19.42-6.73,22.03-8.46l5.96-22.53Z"/>
  <path class="cls-1" d="M276.8,434.81c1.95,1.68,1.93,23.85,0,25.51-4.41,3.79-21.69-2.42-26.67-5.33-33.23-19.48-20.51-73.92-23.13-105.97-.6-6.88,18.7-5.65,19.84-1.75,1.51,19.84-1.31,41.17.16,60.84,1.51,20.16,11.3,23.87,29.79,26.7Z"/>
  <path class="cls-1" d="M325.05,526.57c1.14,5.25,1.82,15.35-4.71,16.79h-59.58s-20.42-19.57-20.42-19.57c-18.3-1.98-39.92,1.92-57.81-.19-9.89-1.16-10.79-14.51-1.92-15.96,20.65,1.56,44.78-2.27,65-.12,9.77,1.04,13.89,14.54,21.94,19.06h57.5Z"/>
  <path class="cls-1" d="M572.05,625.57v-14.5l3.45-1.55,108.98.12c6.82.64,6.98,12.56,4.07,16.93h-114c-.33,0-1.52-1.32-2.5-1Z"/>
  <path class="cls-1" d="M285.05,552.57h35.5l1.5,1.5v36c0,5.46-5.96,13.76-10.99,16.01-13.06,5.84-25.33-3.89-26.9-17.12-.35-2.94-.94-36.39.89-36.39Z"/>
  <path class="cls-1" d="M506.05,609.57v17h-106c-.62-4.11,4.33-5.07,7.01-7.49,3.31-2.99,6.21-6.49,9.49-9.51h89.5Z"/>
  <polygon class="cls-1" points="320.05 413.57 320.05 460.57 287.55 460.57 286.05 459.07 286.05 415.07 287.55 413.57 320.05 413.57"/>
  <path class="cls-1" d="M271.05,476.07c.54-1.87,4.57-3.3,6.48-3.52,8.91-1.06,46.78-1.35,54.79.25,8.79,1.76,8.35,14.67,4.23,20.77h-64l-1.5-1.5v-16Z"/>
  <polygon class="cls-1" points="506.05 555.57 506.05 600.57 484.05 600.57 474.06 559.95 476.55 555.57 506.05 555.57"/>
  <path class="cls-1" d="M473.05,303.57v18c-.98-.32-2.17,1-2.5,1h-56l-1.5-1.5v-17.5h60Z"/>
  <path class="cls-1" d="M573.55,466.57c-4.25-.77-4.15-7.6-2.36-10.86,3.84.56,7.91-1.22,11.37-1.22,2.86,0,5.31,1.11,7.95,1.13,24.17.15,48.37-.21,72.53-.03v10.99s-89.49,0-89.49,0Z"/>
  <path class="cls-1" d="M238.05,185.57c2.65,18.36,8.01,36.49,9,55-3.16-.32-11.26,1.06-13.07-1.69l-18.92-54.31c1.08-.38,2.19,1,2.49,1h20.5Z"/>
  <path class="cls-1" d="M392.05,184.57c2.05,2.01-15.91,48.24-17.96,54.54-1.14.76-9.67.74-11.57.46-1.5-.21-1.6.59-1.48-1.49,3.1-14,4.33-28.58,7.47-42.55.46-2.04,1.95-10.96,4.04-10.96h19.5Z"/>
  <path class="cls-1" d="M659.55,484.57c2.55.79,1.87,9.12-.49,10.51l-85.51.49c-4.05-.65-2.34-6.69-2.34-9.83.72-.15,1.98-1.17,2.34-1.17h86Z"/>
  <path class="cls-1" d="M660.05,437.57h-89c-.78-3.44-2.47-8.19.5-11h86c2.81,2.95,2.6,7.25,2.5,11Z"/>
  <path class="cls-1" d="M279.05,387.07c1.53-1.78,3.23-2.26,5.48-2.52,9.27-1.08,28.44-.71,38.06-.03,1.69.12,3.3.32,4.87.93,1.03.73,1.43,15.56.58,18.11h-47.5l-1.5-1.5v-15Z"/>
  <path class="cls-1" d="M222.05,575.07c.09-.33,1.55-1.77,2.02-1.98,1.77-.83,18.92-.98,21.46-.49,1.1.21,3.53,1.73,3.53,2.47v27c0,.28-1.55,2.73-2,3h-23c-.45-.27-2-2.72-2-3,0-5.74-1.14-22.93,0-27Z"/>
  <path class="cls-1" d="M651.05,409.57h-78.5c-3.35,0-3.35-11,0-11h74c2.84,2.69,4.54,7.19,4.5,11Z"/>
  <path class="cls-1" d="M628.55,600.57l-12.25-28.51c.31-4.2,19.99-2.35,23.74-1.97,1.25.79,2.01,1.99,2.84,3.16,2.49,3.48,10.82,18.9,12.2,22.81.37,1.06,1.65,4.52-.53,4.52h-26Z"/>
  <path class="cls-1" d="M653.05,512.57c-.52,7.64-3.76,10.96-11.51,10.99-1.9,0-3.83-1.03-5.95-1.04-20.96-.04-41.92.09-62.87.09-3.06-3.18-2.31-10.04,2.83-10.04h77.5Z"/>
  <path class="cls-1" d="M459.05,353.57c-.98-.32-2.17,1-2.5,1h-27c-.33,0-1.52-1.32-2.5-1v-22.5l1.5-1.5h29l1.5,1.5v22.5Z"/>
  <path class="cls-1" d="M322.05,634.57h-39.5c-3.31-4.99-2.11-14.22,3.58-17.42,4.08-2.3,22.05-2.12,27.46-1.63,10.77.98,10.69,10.49,8.45,19.05Z"/>
  <path class="cls-1" d="M329.05,502.57c2.8,8.19-1.08,13.24-9.45,14.05-6.01.58-30.52.79-35.39-.71-5.45-1.68-8.48-8.79-4.66-13.34h49.5Z"/>
  <path class="cls-1" d="M571.55,369.57h51c1.56,0,10.33,7.44,11.01,9l-1.01,2h-61l-1.34-1.66c-.28-1.26-.22-2.56-.22-3.84,0-2.05-.33-4.23,1.56-5.5Z"/>
  <path class="cls-1" d="M215.91,595.42c-1.66.87-3.47,1.05-5.32,1.19-5.83.42-27.45.77-31.46-1.63-5.7-3.41-3.14-13.34,2.44-14.39,2.71-.51,31.02-.48,32.84.11,2.53.79,1.94,14.01,1.5,14.72Z"/>
  <path class="cls-1" d="M569.05,669.57l-.56-13.06c5.67-3.64,11.53-.98,17.02-.9,4.73.07,20.55-.97,23.54.46,5.19,2.47,2.45,13.5-.5,13.5h-39.5Z"/>
  <path class="cls-1" d="M274.91,607.43c-5.91.13-12.56,2.11-13.8-5.42-.68-4.1-.69-23.89.16-27.73,1.42-6.45,13.78-7.75,14.79-2.22s.51,23.68.04,30.05c-.13,1.85-.32,3.66-1.19,5.32Z"/>
  <polygon class="cls-1" points="633.05 542.57 630.16 549.95 574.55 550.57 572.19 548.93 572.05 542.57 633.05 542.57"/>
  <path class="cls-1" d="M207.11,412.51l-.06-48.44c.11-2.74,3.21-2.95,5.49-2.52,5.12.97,2.48,12.98,2.47,16.48-.02,8.61,1.43,24.52.04,32.04-.7,3.79-4.93,2.39-7.95,2.44Z"/>
  <path class="cls-1" d="M331.05,571.07c.88-1.43,1.99-1.38,3.45-1.55,1.58-.19,6.59-.94,6.59,1.55,0,3.74-1.77,7.7-2.08,11.96-.61,8.61.78,16.18,2.05,24.54h-10s0-36.5,0-36.5Z"/>
  <path class="cls-1" d="M673.82,635.8c5.28,13.94-4.77,15.57-16.21,13.7-6.9-1.12-7.68-12.4-4.59-14.48,1.63-1.1,19.16-.86,20.8.78Z"/>
  <path class="cls-1" d="M359.06,184.57l-3.2,32.3c-1.01,3.56-5.89,2.71-8.81,2.7l3.15-33.36,1.49-1.51,7.37-.14Z"/>
  <path class="cls-1" d="M250.05,184.57l7.36.14,1.5,1.5,3.17,30.87c-.23,3.58-7.16,3.94-8.58-.46-2.86-8.81-1.05-22.65-3.45-32.05Z"/>
  <path class="cls-1" d="M506.05,344.57c1.37,2.15,1.46,10-1.5,10h-26c-2.36-2.15-2.36-7.85,0-10h27.5Z"/>
  <path class="cls-1" d="M314.05,639.57c1.1,3.42,1.8,6.7-.99,9.51l-21.43-.4c-1.24-.88-1.13-8.07.92-9.11h21.5Z"/>
  <path class="cls-1" d="M506.06,370.56v10c-1.26,1.4-8.69-7.56-10-8.51-.42-2.26.99-1.38,2.47-1.49,2.48-.18,5.04.12,7.52,0Z"/>
  <path class="cls-1" d="M413.79,431.81c22.35-4.14,26.94,29.06,21.47,44.47-5.81,16.36-23.91,20.83-32.61,4.19-6.39-12.23-5.7-45.54,11.13-48.66Z"/>
  <path class="cls-1" d="M413.19,423.43c-1.11-4.56-9.23-24.9-7.7-27.85,1.3-2.49,10.16-3.91,13.03-4.04,3.55-.17,14.96.54,15.59,4.55.26,1.65-6.87,24.78-7.99,26.05-2.36,2.67-9.41,1.17-12.92,1.3Z"/>
  <path class="cls-1" d="M423.88,499.73c1.25.83,9.21,26.86,8.03,28.7-4.26,3.11-24.16,3.22-25.72-1.54-1.7-5.2,5.71-20.81,6.93-26.75.52-2.6,9.95-.94,10.75-.41Z"/>
  <path class="cls-1" d="M447.75,404.88c2.18,1.92,12.8,17.5,12.17,19.97-.41,1.6-17,18.07-18.85,16.71-.41-5.93-7.61-8.51-7.01-14.4.15-1.44,8.34-19.61,9.57-21.52.5-.77.98-1.54,1.9-1.86.79.25,1.58.55,2.21,1.1Z"/>
  <path class="cls-1" d="M441.54,481.6c2.89,3.05,18.26,12.62,18.55,15.5.24,2.38-11.84,22.09-13.56,22.46-1.32.29-1.76-.74-2.35-1.61-1.04-5.97-9.76-17.9-10.11-22.95-.23-3.3,5.93-9.89,7.48-13.39Z"/>
  <path class="cls-1" d="M394,404.61l11.08,20.53-9.64,14.37c-1.45.25-14.2-14.15-14.31-16.42-.12-2.62,7.8-16.85,9.9-18.06.95-.54,1.93-.66,2.97-.43Z"/>
  <path class="cls-1" d="M396,482.61l7.82,13.28c-.11,1.32-7.72,17.41-8.91,19.03-.64.87-.98,1.96-2.33,1.63l-12.51-19.51c.03-1.19,10.8-12.45,12.44-13.53,1.17-.76,2.03-1.32,3.5-.91Z"/>
  <path class="cls-1" d="M469.05,468.07c-.09.54-1.02,1.55-1.14,2.37-1.19.72-18.41-2.5-20.6-3.56-3.24-1.57-3.76-12.34.5-14.06,1.1-.44,17.04-4.04,17.96-4.03,1.19,0,3.29,1.73,3.29,2.28,0,4.85.73,12.67,0,17Z"/>
  <path class="cls-1" d="M373.05,450.07c.24-.81,1.46-1.4,2.41-1.46,1.07-.07,14.84,3.82,15.6,4.45,1.55,1.29,1.44,13.91.39,14.63-2.33-.18-18.41,9.8-18.41,4.39v-22Z"/>
</svg>