<svg xmlns="http://www.w3.org/2000/svg" xmlns:xlink="http://www.w3.org/1999/xlink" width="1080" zoomAndPan="magnify" viewBox="0 0 810 1012.49997" height="1350" preserveAspectRatio="xMidYMid meet" version="1.2"><defs><clipPath id="091971b188"><path d="M 340.484375 157.835938 L 498.65625 157.835938 L 498.65625 336.25 L 340.484375 336.25 Z M 340.484375 157.835938 "/></clipPath><clipPath id="3cacac9624"><path d="M 118 636 L 200.167969 636 L 200.167969 672 L 118 672 Z M 118 636 "/></clipPath><clipPath id="10a51f7475"><path d="M 25.503906 635 L 108 635 L 108 671 L 25.503906 671 Z M 25.503906 635 "/></clipPath><clipPath id="13b89ecb4c"><path d="M 110 779 L 116 779 L 116 803.472656 L 110 803.472656 Z M 110 779 "/></clipPath><clipPath id="96b063263d"><path d="M 609.972656 626 L 729 626 L 729 803.472656 L 609.972656 803.472656 Z M 609.972656 626 "/></clipPath><clipPath id="c8ae99ea09"><path d="M 243.078125 364.726562 L 566.921875 364.726562 L 566.921875 647.335938 L 243.078125 647.335938 Z M 243.078125 364.726562 "/></clipPath><clipPath id="e00f2981b1"><path d="M 255.074219 376.71875 L 578.914062 376.71875 L 578.914062 657.082031 L 255.074219 657.082031 Z M 255.074219 376.71875 "/></clipPath></defs><g id="2520417b4f"><path style=" stroke:none;fill-rule:nonzero;fill:#4a90e2;fill-opacity:1;" d="M 372.3125 177.101562 L 426.035156 177.101562 C 426.542969 177.101562 427.035156 177.199219 427.503906 177.394531 C 427.976562 177.589844 428.390625 177.867188 428.753906 178.230469 C 429.113281 178.589844 429.390625 179.003906 429.585938 179.476562 C 429.78125 179.949219 429.878906 180.4375 429.878906 180.949219 L 429.878906 229.609375 C 429.878906 230.117188 429.78125 230.609375 429.585938 231.078125 C 429.390625 231.550781 429.113281 231.964844 428.753906 232.328125 C 428.390625 232.6875 427.976562 232.964844 427.503906 233.160156 C 427.035156 233.355469 426.542969 233.453125 426.035156 233.453125 L 372.3125 233.453125 C 371.804688 233.453125 371.3125 233.355469 370.84375 233.160156 C 370.371094 232.964844 369.957031 232.6875 369.59375 232.328125 C 369.234375 231.964844 368.957031 231.550781 368.761719 231.078125 C 368.566406 230.609375 368.46875 230.117188 368.46875 229.609375 L 368.46875 180.949219 C 368.46875 180.4375 368.566406 179.949219 368.761719 179.476562 C 368.957031 179.003906 369.234375 178.589844 369.59375 178.230469 C 369.957031 177.867188 370.371094 177.589844 370.84375 177.394531 C 371.3125 177.199219 371.804688 177.101562 372.3125 177.101562 Z M 372.3125 177.101562 "/><g clip-rule="nonzero" clip-path="url(#091971b188)"><path style=" stroke:none;fill-rule:nonzero;fill:#4a90e2;fill-opacity:1;" d="M 497.476562 185.367188 L 492.675781 185.367188 L 492.675781 173.5625 C 492.675781 171.753906 491.210938 170.289062 489.40625 170.289062 C 487.597656 170.289062 486.132812 171.753906 486.132812 173.5625 L 486.132812 185.367188 L 480.863281 185.367188 L 480.863281 173.5625 C 480.863281 171.753906 479.402344 170.289062 477.59375 170.289062 C 475.785156 170.289062 474.320312 171.753906 474.320312 173.5625 L 474.320312 185.367188 L 469.515625 185.367188 C 469.027344 185.367188 468.632812 185.761719 468.632812 186.25 L 468.632812 194.550781 C 468.632812 201.632812 473.589844 207.558594 480.222656 209.050781 L 480.222656 291.414062 C 480.222656 294.957031 477.339844 297.839844 473.800781 297.839844 C 470.257812 297.839844 467.375 294.957031 467.375 291.414062 L 467.375 240.683594 C 467.375 233.289062 461.359375 227.269531 453.964844 227.269531 L 449.417969 227.269531 L 449.417969 170.890625 C 449.417969 163.691406 443.5625 157.835938 436.363281 157.835938 L 361.984375 157.835938 C 354.785156 157.835938 348.933594 163.691406 348.933594 170.890625 L 348.933594 323.230469 L 348.28125 323.230469 C 343.980469 323.230469 340.496094 326.710938 340.496094 331.011719 L 340.496094 336.234375 L 457.851562 336.234375 L 457.851562 331.011719 C 457.851562 326.714844 454.371094 323.230469 450.070312 323.230469 L 449.417969 323.230469 L 449.417969 233.816406 L 453.964844 233.816406 C 457.75 233.816406 460.832031 236.894531 460.832031 240.683594 L 460.832031 291.414062 C 460.832031 298.566406 466.652344 304.382812 473.800781 304.382812 C 480.953125 304.382812 486.769531 298.566406 486.769531 291.414062 L 486.769531 209.046875 C 493.40625 207.554688 498.363281 201.632812 498.363281 194.546875 L 498.363281 186.25 C 498.363281 185.761719 497.96875 185.363281 497.476562 185.363281 Z M 355.476562 323.226562 L 355.476562 170.890625 C 355.476562 167.300781 358.394531 164.382812 361.984375 164.382812 L 436.367188 164.382812 C 439.953125 164.382812 442.875 167.300781 442.875 170.890625 L 442.875 323.230469 L 355.476562 323.230469 Z M 355.476562 323.226562 "/></g><path style=" stroke:none;fill-rule:nonzero;fill:#4a90e2;fill-opacity:1;" d="M 413.515625 270.25 L 403.417969 270.25 L 407.292969 250.175781 C 407.433594 249.453125 407.066406 248.726562 406.398438 248.414062 C 405.730469 248.101562 404.933594 248.28125 404.46875 248.855469 L 383.589844 274.382812 C 383.195312 274.867188 383.113281 275.53125 383.382812 276.09375 C 383.648438 276.65625 384.214844 277.011719 384.835938 277.011719 L 394.933594 277.011719 L 391.058594 297.085938 C 390.921875 297.808594 391.289062 298.535156 391.957031 298.847656 C 392.175781 298.949219 392.410156 299 392.636719 299 C 393.113281 299 393.574219 298.792969 393.886719 298.410156 L 414.765625 272.878906 C 415.160156 272.394531 415.242188 271.730469 414.972656 271.167969 C 414.707031 270.605469 414.140625 270.25 413.515625 270.25 Z M 413.515625 270.25 "/><g clip-rule="nonzero" clip-path="url(#3cacac9624)"><path style=" stroke:none;fill-rule:nonzero;fill:#4a90e2;fill-opacity:1;" d="M 118.058594 645.542969 L 119.9375 645.542969 C 120.664062 645.585938 121.339844 645.425781 121.96875 645.0625 C 122.597656 644.699219 123.074219 644.195312 123.402344 643.546875 C 123.820312 642.953125 124.132812 642.308594 124.339844 641.609375 C 125.691406 637.035156 129.679688 635.742188 133.613281 636.796875 C 136.777344 637.644531 139.867188 638.699219 142.886719 639.96875 C 145.878906 641.199219 148.988281 641.667969 152.097656 642.082031 C 161.078125 643.253906 170.058594 643.019531 179.035156 643.019531 L 197.523438 643.136719 L 200.164062 643.253906 C 199.59375 644.226562 198.949219 645.148438 198.226562 646.011719 C 195.351562 649.242188 191.535156 650.882812 187.429688 651.707031 C 184.582031 652.273438 181.707031 652.546875 178.800781 652.527344 C 177.335938 652.46875 176.746094 652.46875 176.335938 654.109375 C 175.574219 657.28125 172.347656 659.511719 169 659.511719 C 167.359375 659.511719 165.714844 659.335938 164.128906 659.277344 C 163.488281 660.707031 162.761719 662.097656 161.957031 663.441406 C 160.667969 665.320312 158.613281 665.847656 156.558594 666.375 C 153.15625 667.199219 150.101562 666.375 147.226562 664.617188 C 146.289062 664.03125 145.761719 664.089844 145.527344 665.261719 L 145.527344 665.378906 C 143.941406 670.835938 139.832031 670.894531 135.371094 669.722656 C 134.960938 669.605469 134.375 669.488281 134.140625 669.722656 C 131.675781 671.894531 128.859375 671.660156 126.042969 670.953125 C 123.226562 670.25 121.289062 669.605469 118.882812 668.960938 C 118.058594 668.722656 118.117188 668.195312 118.117188 667.550781 L 118.117188 645.542969 Z M 118.058594 645.542969 "/></g><g clip-rule="nonzero" clip-path="url(#10a51f7475)"><path style=" stroke:none;fill-rule:nonzero;fill:#4a90e2;fill-opacity:1;" d="M 48.457031 651.765625 C 37.25 653.464844 26.15625 647.128906 25.511719 642.492188 L 29.441406 642.492188 C 40.59375 642.375 51.742188 642.492188 62.835938 642.199219 C 68.019531 642 73.164062 641.453125 78.269531 640.554688 C 81.027344 640.144531 83.609375 638.675781 86.371094 637.855469 C 89.128906 637.035156 91.417969 636.210938 94 635.976562 C 97.460938 635.683594 99.515625 637.328125 100.746094 640.554688 C 101.042969 641.199219 101.277344 641.84375 101.570312 642.433594 C 101.738281 642.832031 101.960938 643.199219 102.242188 643.527344 C 102.523438 643.859375 102.847656 644.140625 103.214844 644.371094 C 103.582031 644.601562 103.976562 644.773438 104.398438 644.882812 C 104.816406 644.992188 105.242188 645.035156 105.675781 645.015625 L 107.144531 645.015625 C 107.144531 645.425781 107.203125 645.835938 107.203125 646.1875 L 107.203125 666.90625 C 107.203125 667.785156 107.027344 668.253906 106.03125 668.488281 C 103.328125 669.136719 100.628906 670.015625 97.871094 670.601562 C 96.738281 670.933594 95.589844 670.976562 94.4375 670.726562 C 93.28125 670.476562 92.253906 669.964844 91.359375 669.195312 C 91.121094 668.960938 90.535156 669.019531 90.125 669.078125 C 88.304688 669.195312 86.488281 669.605469 84.667969 669.546875 C 82.847656 669.488281 81.203125 667.960938 80.324219 666.082031 C 79.445312 664.207031 79.210938 663.558594 76.628906 664.792969 C 72.460938 666.730469 68.292969 666.613281 64.480469 663.910156 C 63.363281 663.089844 62.71875 661.566406 61.957031 660.332031 C 61.652344 659.777344 61.4375 659.191406 61.308594 658.570312 C 53.738281 659.921875 49.101562 657.28125 48.457031 651.765625 Z M 48.457031 651.765625 "/></g><path style=" stroke:none;fill-rule:nonzero;fill:#4a90e2;fill-opacity:1;" d="M 146.640625 681.105469 C 146.113281 679.054688 145.171875 677.351562 143.355469 676.234375 C 137.601562 672.65625 131.558594 672.1875 125.277344 674.359375 C 120.996094 675.824219 119.234375 679.464844 119.527344 683.21875 C 119.644531 684.863281 120.761719 685.449219 122.050781 685.917969 C 122.433594 686.089844 122.824219 686.109375 123.226562 685.976562 L 124.632812 684.570312 C 124.957031 684.167969 125.308594 683.796875 125.691406 683.453125 L 128.039062 681.105469 L 125.511719 686.09375 C 126.675781 686.125 127.808594 685.964844 128.914062 685.613281 C 130.019531 685.261719 131.039062 684.738281 131.96875 684.042969 C 132.769531 683.386719 133.632812 682.816406 134.550781 682.339844 C 135.207031 681.992188 135.890625 681.914062 136.605469 682.105469 C 138.777344 682.75 139.246094 685.332031 137.425781 686.859375 C 133.261719 690.378906 128.332031 692.023438 122.988281 692.667969 C 119 693.136719 114.890625 693.3125 110.84375 693.667969 C 108.625 693.820312 106.433594 694.15625 104.269531 694.664062 C 101.917969 695.308594 99.746094 696.332031 97.75 697.734375 C 95.757812 699.136719 94.054688 700.832031 92.648438 702.820312 C 89.539062 707.222656 88.953125 711.917969 91.0625 716.90625 C 91.886719 718.960938 93.765625 720.074219 95.523438 721.367188 C 97.285156 722.65625 98.28125 722.773438 100.042969 721.71875 C 101.804688 720.664062 105.265625 718.960938 107.554688 717.785156 C 106.324219 716.378906 105.03125 715.027344 103.859375 713.5625 C 101.453125 710.449219 102.332031 707.105469 105.851562 705.578125 C 109.375 704.054688 111.605469 704.347656 114.539062 704.054688 C 117.472656 703.761719 120.464844 703.703125 123.34375 703.054688 C 129.796875 701.800781 135.722656 699.296875 141.125 695.542969 C 142.246094 694.75 143.230469 693.808594 144.070312 692.71875 C 144.914062 691.632812 145.582031 690.449219 146.074219 689.164062 C 146.5625 687.878906 146.855469 686.550781 146.953125 685.175781 C 147.050781 683.804688 146.945312 682.449219 146.640625 681.105469 Z M 123.753906 680.871094 C 123.621094 680.871094 123.492188 680.847656 123.371094 680.796875 C 123.25 680.746094 123.140625 680.675781 123.046875 680.582031 C 122.953125 680.488281 122.882812 680.378906 122.832031 680.257812 C 122.78125 680.132812 122.753906 680.007812 122.753906 679.875 C 122.753906 679.742188 122.78125 679.617188 122.832031 679.492188 C 122.882812 679.371094 122.953125 679.261719 123.046875 679.167969 C 123.140625 679.074219 123.25 679.003906 123.371094 678.953125 C 123.492188 678.902344 123.621094 678.878906 123.753906 678.878906 C 123.886719 678.878906 124.011719 678.902344 124.136719 678.953125 C 124.257812 679.003906 124.363281 679.074219 124.457031 679.167969 C 124.550781 679.261719 124.625 679.371094 124.675781 679.492188 C 124.726562 679.617188 124.75 679.742188 124.75 679.875 C 124.734375 680.144531 124.632812 680.375 124.441406 680.566406 C 124.253906 680.753906 124.023438 680.859375 123.753906 680.871094 Z M 123.753906 680.871094 "/><path style=" stroke:none;fill-rule:nonzero;fill:#4a90e2;fill-opacity:1;" d="M 124.75 679.875 C 124.75 680.007812 124.726562 680.132812 124.675781 680.257812 C 124.625 680.378906 124.550781 680.488281 124.457031 680.582031 C 124.363281 680.675781 124.257812 680.746094 124.136719 680.796875 C 124.011719 680.847656 123.886719 680.871094 123.753906 680.871094 C 123.621094 680.871094 123.492188 680.847656 123.371094 680.796875 C 123.25 680.746094 123.140625 680.675781 123.046875 680.582031 C 122.953125 680.488281 122.882812 680.378906 122.832031 680.257812 C 122.78125 680.132812 122.753906 680.007812 122.753906 679.875 C 122.753906 679.742188 122.78125 679.617188 122.832031 679.492188 C 122.882812 679.371094 122.953125 679.261719 123.046875 679.167969 C 123.140625 679.074219 123.25 679.003906 123.371094 678.953125 C 123.492188 678.902344 123.621094 678.878906 123.753906 678.878906 C 123.886719 678.878906 124.011719 678.902344 124.136719 678.953125 C 124.257812 679.003906 124.363281 679.074219 124.457031 679.167969 C 124.550781 679.261719 124.625 679.371094 124.675781 679.492188 C 124.726562 679.617188 124.75 679.742188 124.75 679.875 Z M 124.75 679.875 "/><path style=" stroke:none;fill-rule:nonzero;fill:#4a90e2;fill-opacity:1;" d="M 123.226562 685.976562 L 124.632812 684.570312 C 124.480469 684.675781 124.363281 684.8125 124.28125 684.980469 C 124.003906 685.394531 123.652344 685.726562 123.226562 685.976562 Z M 123.226562 685.976562 "/><path style=" stroke:none;fill-rule:nonzero;fill:#4a90e2;fill-opacity:1;" d="M 121.464844 634.628906 C 121.523438 638.089844 120.054688 640.554688 117.414062 642.492188 C 117.09375 642.703125 116.847656 642.984375 116.679688 643.332031 C 116.511719 643.679688 116.445312 644.042969 116.476562 644.429688 C 116.4375 659.335938 116.398438 674.28125 116.359375 689.265625 L 116.359375 692.140625 L 108.789062 692.140625 L 108.789062 644.488281 C 108.832031 644.085938 108.765625 643.703125 108.582031 643.339844 C 108.402344 642.980469 108.136719 642.695312 107.789062 642.492188 C 104.621094 640.496094 102.976562 636.796875 103.742188 633.453125 C 104.503906 630.109375 106.96875 627.054688 110.84375 626.234375 C 116.710938 625.0625 121.40625 629.992188 121.464844 634.628906 Z M 121.464844 634.628906 "/><path style=" stroke:none;fill-rule:nonzero;fill:#4a90e2;fill-opacity:1;" d="M 108.4375 740.617188 C 105.851562 741.964844 103.507812 743.316406 100.980469 744.371094 C 100.335938 744.664062 99.222656 744.3125 98.515625 743.902344 C 93.351562 741.027344 91.828125 733.75 95.347656 728.9375 C 98.164062 725.003906 102.332031 722.890625 106.617188 721.074219 C 110.902344 719.253906 114.304688 718.375 118 716.789062 C 121.699219 715.203125 122.636719 713.386719 122.578125 709.980469 C 122.605469 709.261719 122.429688 708.589844 122.058594 707.972656 C 121.6875 707.355469 121.175781 706.890625 120.523438 706.578125 C 120.347656 706.519531 120.230469 706.34375 119.878906 706.109375 L 124.808594 704.933594 L 131.558594 703.351562 C 131.75 703.277344 131.945312 703.242188 132.148438 703.25 C 132.355469 703.257812 132.546875 703.308594 132.730469 703.394531 C 132.914062 703.484375 133.074219 703.609375 133.207031 703.761719 C 133.339844 703.917969 133.433594 704.09375 133.496094 704.289062 C 135.253906 707.984375 135.84375 711.859375 134.316406 715.792969 C 133.496094 717.902344 131.792969 719.371094 130.089844 720.664062 C 126.511719 723.363281 122.285156 724.652344 118.175781 726.179688 C 114.070312 727.703125 111.195312 728.761719 107.90625 730.347656 C 103.742188 732.339844 103.917969 737.386719 107.4375 739.851562 Z M 108.4375 740.617188 "/><path style=" stroke:none;fill-rule:nonzero;fill:#4a90e2;fill-opacity:1;" d="M 106.089844 682.808594 C 106.101562 683.027344 106.09375 683.242188 106.058594 683.457031 C 106.027344 683.671875 105.96875 683.878906 105.890625 684.082031 C 105.8125 684.285156 105.714844 684.476562 105.59375 684.65625 C 105.472656 684.839844 105.335938 685.003906 105.179688 685.15625 C 105.023438 685.304688 104.851562 685.4375 104.667969 685.550781 C 104.480469 685.664062 104.285156 685.757812 104.082031 685.828125 C 103.875 685.898438 103.664062 685.949219 103.449219 685.972656 C 103.234375 686 103.019531 686 102.800781 685.976562 C 102.386719 685.925781 102.050781 685.730469 101.804688 685.390625 C 100.042969 683.691406 98.398438 681.929688 96.699219 680.226562 L 100.453125 686.035156 C 99.230469 686.140625 98.03125 686.015625 96.855469 685.660156 C 95.675781 685.308594 94.609375 684.746094 93.648438 683.984375 L 91.183594 682.398438 C 89.65625 681.636719 88.539062 681.871094 87.71875 683.042969 C 86.898438 684.21875 86.898438 685.683594 88.1875 686.800781 C 90.277344 688.582031 92.644531 689.832031 95.289062 690.554688 L 103.566406 692.609375 L 100.628906 693.550781 C 97.613281 694.851562 94.914062 696.628906 92.53125 698.890625 C 92.082031 699.269531 91.574219 699.386719 91.003906 699.242188 C 87.542969 697.597656 84.199219 695.835938 81.675781 692.84375 C 79.152344 689.851562 77.625 682.691406 80.03125 678.761719 C 81.019531 677.238281 82.332031 676.085938 83.964844 675.296875 C 89.773438 672.597656 95.816406 672.070312 101.746094 675.003906 C 102.371094 675.292969 102.945312 675.664062 103.472656 676.113281 C 103.996094 676.5625 104.449219 677.074219 104.832031 677.652344 C 105.214844 678.226562 105.515625 678.839844 105.726562 679.496094 C 105.941406 680.15625 106.0625 680.828125 106.089844 681.519531 Z M 106.089844 682.808594 "/><path style=" stroke:none;fill-rule:nonzero;fill:#4a90e2;fill-opacity:1;" d="M 117.824219 728.703125 C 120.230469 727.882812 122.578125 726.824219 125.101562 726.238281 C 127.625 725.652344 128.15625 727.46875 129.035156 728.820312 C 133.261719 735.394531 129.855469 744.371094 122.34375 746.660156 C 118.648438 747.835938 115.066406 749.242188 111.488281 750.59375 C 110.878906 750.804688 110.308594 751.097656 109.785156 751.472656 C 107.085938 753.175781 106.675781 754.640625 108.140625 757.519531 C 106.03125 758.867188 103.917969 760.21875 101.746094 761.449219 C 101.511719 761.625 100.804688 761.390625 100.453125 761.097656 C 99.839844 760.601562 99.335938 760.007812 98.953125 759.320312 C 98.566406 758.628906 98.324219 757.890625 98.222656 757.105469 C 97.636719 753.058594 98.578125 749.535156 101.746094 746.777344 C 103.859375 744.957031 106.441406 744.019531 108.964844 743.023438 L 116.359375 740.085938 C 119.46875 738.855469 119.878906 736.097656 119.351562 733.515625 C 119 732.046875 118.414062 730.582031 117.824219 728.703125 Z M 117.824219 728.703125 "/><path style=" stroke:none;fill-rule:nonzero;fill:#4a90e2;fill-opacity:1;" d="M 125.511719 751.472656 C 125.820312 752.65625 125.902344 753.855469 125.761719 755.070312 C 125.621094 756.285156 125.261719 757.433594 124.691406 758.515625 C 123.71875 760.308594 122.332031 761.675781 120.523438 762.625 C 117.179688 764.382812 113.71875 765.851562 110.253906 767.261719 C 108.140625 768.082031 107.730469 768.667969 108.378906 770.898438 C 108.535156 771.515625 108.632812 772.140625 108.671875 772.777344 C 108.90625 774.242188 108.554688 774.597656 107.144531 774.417969 C 104.621094 774.066406 102.332031 773.246094 101.394531 770.664062 C 101.042969 769.769531 100.921875 768.847656 101.023438 767.890625 C 101.128906 766.9375 101.445312 766.0625 101.980469 765.265625 C 103.449219 762.976562 105.617188 761.507812 107.90625 760.277344 C 110.195312 759.042969 112.25 758.222656 114.421875 757.222656 L 115.773438 756.519531 C 117.882812 755.289062 118.355469 754.171875 117.53125 751.824219 C 117.179688 750.886719 117.355469 750.476562 118.414062 750.183594 C 119.46875 749.886719 121.992188 749.125 123.753906 748.480469 C 124.398438 748.246094 124.691406 748.304688 124.867188 749.007812 C 125.042969 749.710938 125.277344 750.652344 125.511719 751.472656 Z M 125.511719 751.472656 "/><path style=" stroke:none;fill-rule:nonzero;fill:#4a90e2;fill-opacity:1;" d="M 98.753906 783.808594 C 101.628906 780.230469 105.382812 777.824219 109.316406 775.652344 C 111.195312 774.597656 113.011719 773.480469 114.832031 772.367188 C 115.136719 772.203125 115.40625 771.996094 115.644531 771.746094 C 115.882812 771.496094 116.074219 771.214844 116.222656 770.90625 C 116.371094 770.59375 116.46875 770.265625 116.511719 769.925781 C 116.554688 769.582031 116.542969 769.242188 116.476562 768.902344 C 116.242188 767.203125 116.886719 766.320312 118.472656 765.792969 C 120.054688 765.265625 121.113281 764.617188 122.402344 764.03125 C 124.28125 767.964844 123.988281 772.777344 120.761719 774.714844 C 119.570312 775.457031 118.339844 776.125 117.0625 776.707031 C 112.796875 778.46875 108.515625 780.171875 104.210938 781.8125 Z M 98.753906 783.808594 "/><path style=" stroke:none;fill-rule:nonzero;fill:#4a90e2;fill-opacity:1;" d="M 108.847656 717.082031 C 108.847656 713.679688 108.789062 710.449219 108.847656 707.164062 C 108.921875 706.867188 109.097656 706.652344 109.375 706.519531 L 116.359375 705.816406 L 116.359375 709.511719 C 116.359375 711.097656 116.417969 712.679688 116.359375 714.265625 C 116.359375 714.617188 116.066406 715.144531 115.832031 715.203125 C 113.601562 715.910156 111.3125 716.4375 108.847656 717.082031 Z M 108.847656 717.082031 "/><g clip-rule="nonzero" clip-path="url(#13b89ecb4c)"><path style=" stroke:none;fill-rule:nonzero;fill:#4a90e2;fill-opacity:1;" d="M 112.71875 803.292969 C 112.519531 803.296875 112.402344 803.199219 112.367188 803 C 112.019531 801.730469 111.785156 800.4375 111.664062 799.128906 C 111.429688 795.957031 111.136719 792.730469 110.902344 789.5625 C 110.664062 786.390625 110.664062 784.867188 110.488281 782.519531 C 110.429688 781.636719 110.664062 781.109375 111.488281 780.816406 C 112.703125 780.410156 113.898438 779.941406 115.066406 779.40625 C 114.421875 787.449219 114.363281 795.253906 113.070312 803 C 113.039062 803.199219 112.921875 803.296875 112.71875 803.292969 Z M 112.71875 803.292969 "/></g><path style=" stroke:none;fill-rule:nonzero;fill:#4a90e2;fill-opacity:1;" d="M 109.140625 740.085938 C 109.140625 737.445312 109.082031 734.980469 109.140625 732.515625 C 109.183594 732.230469 109.320312 731.992188 109.550781 731.8125 L 116.242188 729.347656 L 116.242188 734.746094 C 116.242188 737.859375 116.242188 737.859375 113.367188 738.855469 Z M 109.140625 740.085938 "/><path style=" stroke:none;fill-rule:nonzero;fill:#4a90e2;fill-opacity:1;" d="M 115.773438 779.054688 C 117.179688 778.410156 118.175781 777.882812 119.234375 777.472656 C 119.527344 777.34375 119.820312 777.34375 120.113281 777.472656 C 122.90625 778.757812 125.214844 780.636719 127.039062 783.105469 C 122.578125 783.457031 119.46875 780.992188 115.773438 779.054688 Z M 115.773438 779.054688 "/><path style=" stroke:none;fill-rule:nonzero;fill:#4a90e2;fill-opacity:1;" d="M 115.832031 751.121094 C 115.832031 752.175781 115.890625 752.941406 115.832031 753.761719 C 115.765625 754.039062 115.628906 754.273438 115.417969 754.464844 L 109.609375 757.046875 C 109.609375 755.875 109.550781 754.996094 109.609375 754.054688 C 109.65625 753.761719 109.8125 753.546875 110.078125 753.410156 Z M 115.832031 751.121094 "/><path style=" stroke:none;fill-rule:nonzero;fill:#4a90e2;fill-opacity:1;" d="M 115.242188 767.203125 C 115.710938 769.253906 115.476562 770.605469 113.660156 771.367188 C 111.839844 772.132812 111.429688 772.601562 110.019531 773.363281 L 110.019531 769.960938 C 110.023438 769.734375 110.101562 769.539062 110.253906 769.371094 Z M 115.242188 767.203125 "/><path style=" stroke:none;fill-rule:nonzero;fill:#ffffff;fill-opacity:1;" d="M 103.800781 679.699219 C 103.800781 679.832031 103.773438 679.957031 103.722656 680.082031 C 103.671875 680.203125 103.601562 680.3125 103.507812 680.402344 C 103.414062 680.496094 103.304688 680.570312 103.183594 680.621094 C 103.0625 680.671875 102.933594 680.695312 102.800781 680.695312 C 102.667969 680.695312 102.542969 680.671875 102.417969 680.621094 C 102.296875 680.570312 102.191406 680.496094 102.097656 680.402344 C 102.003906 680.3125 101.929688 680.203125 101.878906 680.082031 C 101.828125 679.957031 101.804688 679.832031 101.804688 679.699219 C 101.804688 679.566406 101.828125 679.4375 101.878906 679.316406 C 101.929688 679.195312 102.003906 679.085938 102.097656 678.992188 C 102.191406 678.898438 102.296875 678.828125 102.417969 678.777344 C 102.542969 678.726562 102.667969 678.699219 102.800781 678.699219 C 102.933594 678.699219 103.0625 678.726562 103.183594 678.777344 C 103.304688 678.828125 103.414062 678.898438 103.507812 678.992188 C 103.601562 679.085938 103.671875 679.195312 103.722656 679.316406 C 103.773438 679.4375 103.800781 679.566406 103.800781 679.699219 Z M 103.800781 679.699219 "/><path style=" stroke:none;fill-rule:nonzero;fill:#ffffff;fill-opacity:1;" d="M 123.519531 679.230469 C 123.519531 679.363281 123.492188 679.488281 123.441406 679.609375 C 123.390625 679.734375 123.320312 679.839844 123.226562 679.933594 C 123.132812 680.027344 123.023438 680.101562 122.902344 680.152344 C 122.78125 680.203125 122.652344 680.226562 122.519531 680.226562 C 122.386719 680.226562 122.261719 680.203125 122.140625 680.152344 C 122.015625 680.101562 121.910156 680.027344 121.816406 679.933594 C 121.722656 679.839844 121.648438 679.734375 121.597656 679.609375 C 121.546875 679.488281 121.523438 679.363281 121.523438 679.230469 C 121.523438 679.097656 121.546875 678.96875 121.597656 678.847656 C 121.648438 678.726562 121.722656 678.617188 121.816406 678.523438 C 121.910156 678.429688 122.015625 678.359375 122.140625 678.308594 C 122.261719 678.257812 122.386719 678.230469 122.519531 678.230469 C 122.652344 678.230469 122.78125 678.257812 122.902344 678.308594 C 123.023438 678.359375 123.132812 678.429688 123.226562 678.523438 C 123.320312 678.617188 123.390625 678.726562 123.441406 678.847656 C 123.492188 678.96875 123.519531 679.097656 123.519531 679.230469 Z M 123.519531 679.230469 "/><g clip-rule="nonzero" clip-path="url(#96b063263d)"><path style=" stroke:none;fill-rule:nonzero;fill:#4a90e2;fill-opacity:1;" d="M 682.011719 703.695312 L 682.011719 699.703125 C 682.011719 697.503906 683.804688 695.710938 686.007812 695.710938 C 688.207031 695.710938 689.996094 697.503906 689.996094 699.703125 C 689.996094 701.902344 688.207031 703.695312 686.007812 703.695312 Z M 633.53125 647.21875 C 643.320312 638.023438 655.894531 633.070312 669.25 633.070312 C 670.382812 633.070312 671.523438 633.101562 672.667969 633.175781 C 699.417969 634.859375 720.871094 657.203125 721.507812 684.039062 C 721.742188 693.96875 719.1875 703.683594 714.117188 712.136719 C 713.34375 713.429688 712.480469 714.726562 711.550781 716.007812 L 711.464844 716.125 C 711.414062 716.199219 711.359375 716.273438 711.304688 716.34375 L 711.257812 716.410156 C 711.070312 716.671875 710.628906 717.199219 710.125 717.808594 C 706.8125 721.785156 699.054688 731.09375 694.09375 746.167969 C 692.878906 749.871094 689.410156 752.355469 685.464844 752.355469 L 682.011719 752.355469 L 682.011719 710.765625 L 686.007812 710.765625 C 692.105469 710.765625 697.066406 705.804688 697.066406 699.703125 C 697.066406 693.601562 692.105469 688.640625 686.007812 688.640625 C 679.90625 688.640625 674.941406 693.601562 674.941406 699.703125 L 674.941406 703.695312 L 669.28125 703.695312 L 669.28125 710.765625 L 674.941406 710.765625 L 674.941406 752.355469 L 668.988281 752.355469 L 663.625 752.3125 L 663.625 710.765625 L 669.28125 710.765625 L 669.28125 703.695312 L 663.625 703.695312 L 663.625 699.703125 C 663.625 693.601562 658.660156 688.640625 652.558594 688.640625 C 646.457031 688.640625 641.496094 693.601562 641.496094 699.703125 C 641.496094 705.804688 646.457031 710.765625 652.558594 710.765625 L 656.550781 710.765625 L 656.550781 752.25 L 651.46875 752.207031 C 648.226562 751.628906 645.515625 749.347656 644.46875 746.167969 C 639.507812 731.09375 631.753906 721.785156 628.441406 717.808594 C 627.933594 717.199219 627.496094 716.671875 627.304688 716.410156 L 627.257812 716.34375 C 627.203125 716.273438 627.152344 716.199219 627.097656 716.128906 L 627.007812 716.003906 C 626.082031 714.726562 625.21875 713.429688 624.445312 712.132812 C 619.601562 704.058594 617.042969 694.785156 617.042969 685.308594 C 617.042969 670.730469 622.898438 657.203125 633.53125 647.21875 Z M 656.550781 703.695312 L 652.558594 703.695312 C 650.355469 703.695312 648.566406 701.902344 648.566406 699.703125 C 648.566406 697.503906 650.355469 695.710938 652.558594 695.710938 C 654.761719 695.710938 656.550781 697.503906 656.550781 699.703125 Z M 692.019531 766.574219 C 691.253906 767.328125 690.242188 767.742188 689.167969 767.742188 C 689.15625 767.742188 689.144531 767.742188 689.132812 767.742188 L 649.363281 767.402344 C 647.117188 767.382812 645.308594 765.542969 645.328125 763.296875 C 645.335938 762.207031 645.765625 761.191406 646.542969 760.429688 C 647.308594 759.675781 648.320312 759.261719 649.394531 759.261719 C 649.40625 759.261719 649.417969 759.261719 649.433594 759.261719 L 650.878906 759.273438 C 651.605469 759.375 652.347656 759.429688 653.097656 759.429688 L 668.929688 759.429688 L 689.199219 759.601562 C 690.289062 759.609375 691.308594 760.039062 692.070312 760.816406 C 692.832031 761.59375 693.246094 762.617188 693.238281 763.703125 C 693.226562 764.792969 692.796875 765.8125 692.019531 766.574219 Z M 692.019531 781.96875 C 691.253906 782.722656 690.242188 783.136719 689.167969 783.136719 C 689.15625 783.136719 689.144531 783.136719 689.132812 783.136719 L 649.363281 782.796875 C 648.277344 782.789062 647.257812 782.355469 646.492188 781.578125 C 645.730469 780.804688 645.316406 779.78125 645.328125 778.691406 C 645.335938 777.605469 645.765625 776.585938 646.542969 775.824219 C 647.308594 775.070312 648.320312 774.65625 649.394531 774.65625 C 649.40625 774.65625 649.417969 774.65625 649.433594 774.65625 L 689.199219 774.996094 C 691.445312 775.015625 693.257812 776.855469 693.238281 779.097656 C 693.226562 780.1875 692.796875 781.207031 692.019531 781.96875 Z M 669.300781 796.386719 C 664.414062 796.386719 659.96875 793.949219 657.296875 790.101562 L 681.148438 790.304688 C 678.457031 794.03125 674.070312 796.386719 669.300781 796.386719 Z M 621.289062 720.15625 L 621.359375 720.253906 C 621.433594 720.355469 621.503906 720.457031 621.578125 720.558594 C 621.917969 721.027344 622.378906 721.578125 623.007812 722.335938 C 626.0625 726 633.214844 734.582031 637.753906 748.375 C 638.605469 750.972656 640.078125 753.234375 641.972656 755.023438 C 641.84375 755.140625 641.714844 755.261719 641.585938 755.386719 C 639.464844 757.472656 638.28125 760.261719 638.257812 763.234375 C 638.230469 766.253906 639.414062 769 641.351562 771.023438 C 639.378906 773.082031 638.28125 775.769531 638.257812 778.628906 C 638.230469 781.605469 639.363281 784.414062 641.453125 786.539062 C 643.511719 788.632812 646.257812 789.8125 649.191406 789.863281 C 652.445312 797.980469 660.382812 803.457031 669.300781 803.457031 C 678.042969 803.457031 685.921875 798.121094 689.261719 790.203125 C 692.167969 790.179688 694.902344 789.050781 696.976562 787.011719 C 699.097656 784.925781 700.28125 782.136719 700.308594 779.160156 C 700.332031 776.144531 699.148438 773.394531 697.214844 771.371094 C 699.183594 769.3125 700.28125 766.628906 700.308594 763.765625 C 700.332031 760.789062 699.195312 757.980469 697.109375 755.859375 C 696.882812 755.628906 696.644531 755.410156 696.402344 755.199219 C 698.390625 753.382812 699.929688 751.058594 700.8125 748.375 C 705.351562 734.582031 712.5 726 715.554688 722.335938 C 716.1875 721.578125 716.644531 721.027344 716.984375 720.558594 C 717.058594 720.457031 717.132812 720.355469 717.207031 720.253906 L 717.273438 720.160156 C 718.320312 718.71875 719.300781 717.242188 720.183594 715.769531 C 725.941406 706.171875 728.839844 695.140625 728.574219 683.875 C 727.855469 653.398438 703.492188 628.03125 673.113281 626.121094 C 656.527344 625.082031 640.75 630.738281 628.691406 642.066406 C 616.792969 653.238281 609.972656 668.996094 609.972656 685.308594 C 609.972656 696.0625 612.878906 706.597656 618.382812 715.769531 C 619.261719 717.238281 620.238281 718.714844 621.289062 720.15625 "/></g><g clip-rule="nonzero" clip-path="url(#c8ae99ea09)"><path style=" stroke:none;fill-rule:nonzero;fill:#4a90e2;fill-opacity:1;" d="M 414.5 370.109375 C 412.582031 366.777344 409.027344 364.726562 405.179688 364.726562 C 401.332031 364.726562 397.777344 366.777344 395.859375 370.109375 L 245.144531 631.148438 C 243.222656 634.480469 243.222656 638.585938 245.144531 641.914062 C 247.066406 645.246094 250.621094 647.296875 254.464844 647.296875 L 555.894531 647.296875 C 555.921875 647.300781 555.945312 647.300781 555.964844 647.296875 C 561.910156 647.296875 566.726562 642.476562 566.726562 636.53125 C 566.726562 634.15625 565.957031 631.957031 564.652344 630.175781 Z M 273.113281 625.769531 L 405.179688 397.019531 L 537.246094 625.769531 Z M 273.113281 625.769531 "/></g><g clip-rule="nonzero" clip-path="url(#e00f2981b1)"><path style=" stroke:none;fill-rule:nonzero;fill:#ffffff;fill-opacity:1;" d="M 578.914062 657.039062 L 255.074219 657.039062 L 416.992188 376.757812 Z M 270.035156 648.429688 L 563.953125 648.429688 L 416.992188 394.042969 Z M 270.035156 648.429688 "/></g></g></svg>