<?xml version="1.0" encoding="UTF-8"?>
<svg id="Layer_1" data-name="Layer 1" xmlns="http://www.w3.org/2000/svg" viewBox="0 0 722.14 444.76">
  <defs>
    <style>
      .cls-1 {
        fill: #4a90e2;
        stroke: #4a90e2;
        stroke-miterlimit: 10;
        stroke-width: 5px;
      }
    </style>
  </defs>
  <path class="cls-1" d="M647.43,61.25c-36.78-27.95-78.85-37.73-124.9-35.6V7.15c0-2.26-5.01-5.24-7.45-4.55l-220.29.8c-.74.32-3.26,2.36-3.26,2.74v84.5c-22.45.68-45.09-2.23-66.99,3.51-11.88,3.11-21.42,4.33-33.01,6.99-33.39,7.65-56.78,30.61-73.99,59.01-7.63,1.32-15.55-.61-23,2-11.13,3.9-15.65,19.87-17.05,30.45-15.06,2.1-42.05-7.63-42.96,15.04l-12.91-.31v29.99l11.82-.58c1.46,25.37,26.01,15.87,43.16,18.34,4.09,13.09,6.76,28.73,22.7,31.3,5.6.91,12.12-.12,17.64,2.36,6.32,7.82,11.01,16.74,17.63,24.37,12.85,14.81,30.27,27.27,48.97,33.54l-17.2,33.78c-6.75.33-13.57.3-20.34.25-6.25-.04-16.33-3.39-17.48,6.44-.63,5.41-.72,20.76-.03,26.07.99,7.57,11.36,6.42,17.06,6.44.66,5.4-.86,19.68,4.94,21.56,3.15,1.02,28.49,1.02,32.5.38,1.97-.32,5.56-2.48,5.56-4.44v-17l137-.5v16.5c0,.94,3.79,5.65,5.53,5.47l44.73-.24c9.12-3.7,3.63-14.12,4.75-21.73h171v17.5c0,1.96,3.59,4.12,5.56,4.44,6.34,1.02,25.19.74,31.98.11,2.49-.23,7.45-1.47,7.45-4.55v-17.5c4.51-.47,14.14,2,15.79-3.71.9-3.13.71-24.68.23-28.81-.62-5.37-3.44-6.91-8.52-7.48-15.26-1.71-33.27,1.4-48.84-.16l-12.65-23.84c38.48,9.36,83.82,3.42,115.91-20.59,90.79-67.94,75.04-208.43-11.02-273.81ZM300.47,16.09l.21-1.34c.57-.43,1.47.04,1.85-.11.95-.38,1.85-1.5,3.38-1.07,66.18.92,132.46-.98,198.62.07.14-1.5,2.86-1.5,3,0,1.29.04,2.8-.18,4,0,.72.11,2.13-.5,2.02.6l-.03,12.4c-1.25.44-1.88-.98-1.99-1-2.94-.4-6.37.36-9.45-.05-1.8-.24-2.95-1.91-6.02-2.06-18.73-.91-26.31,25.93-8.92,34,9.52,4.42,14.77-.35,24.39.11.66.03,1.34-.05,2,0l.07,32.56c.38,2.24-1.8,1.21-2.07,1.44-.28.24-.76.72-1,1-.23.27.79,2.45-1.44,2.07-64.41-1.73-129.81,2.08-194.1-.07-1.93-.06-4.01,1.02-3.45-2-2.64.02-5.38-.18-8,0-.18.01-1.02,1.44-1.99,1-2.96-2.51.21-68.37-1.08-77.56ZM522.54,92.65v-35c44.7-1.89,84.64,8.16,118.01,38.49,72.39,65.78,63.85,212.92-45.01,231.5,24.18-22.96,39.87-53.29,43.87-86.62,8.54-71.04-40.73-148.15-116.87-148.37ZM376.24,131.7l176.81.94c3.41.65,10.82,14.71,13.49,18.01h-172.5c-3.6,0-3.51,10.07,3.95,11.05,55.32-1.12,110.79,1.3,166.09,0,2.35-.06,4.49-1.02,6.82-1.13,2.3,4.22,5.47,10.22,5.64,15.08.02.7.41,2.14-.6,2.02l-172.41-.02v7.01s176.39.94,176.39.94l1.61,6.06c3.93-.36,1.11,1.34,1,2-.14.88.02,2.03,0,3,3.73-.36,1.5,1.3,1,3-.25.86.66,2.73-.55,3.06l-172.95-.06c-4.41.85-2.68,7.72,0,10h174.5c-.57,6.33.78,13.85,0,20-.09.73.49,2.13-.6,2.02l-151.01.05c-1.27.69-3.19-1.06-3.39-1.07-4.35-.33-20.24-3.54-21.81,1.71-.66,2.19-.45,5.7,1.8,6.8l173.89.64c.43.57-.04,1.47.11,1.85.5,1.24,1.61,2.11,1,4h-2c.01,1-.08,2.02,0,3,.02.27,1.64,1.57.99,2.99h-1.99c.01.66-.08,1.37,0,2.01.05.36,1.67,1.58,1,3-.6.17-1.65-.19-2,0-.59.32-1.92.92-2,1-.26.25.56,2.1-.51,2.01h-1.48s0-2.01,0-2.01h-73c.56,3.03-1.53,1.92-3.45,2-2.99.12-6.1.1-9.09,0-1.92-.06-4.01,1.02-3.45-2h-7v2s-3.45.02-3.45.02l-.55-2.01c-1.33,0-2.67,0-4,0v1.99s-1.49.01-1.49.01l-.51-2.01c-2,0-4,0-6,0v2s-3.45.02-3.45.02l-.55-2.01c-2.33,0-4.67,0-7,0v1.99s-1.49.01-1.49.01l-.51-2.01h-3c.56,3.03-1.53,1.92-3.45,2-6.45.25-13.63.22-20.09,0-1.93-.06-4.01,1.02-3.45-2-3.32.03-6.68-.09-10,0v2s-2.49,0-2.49,0l-.51-2.01c-.8.07-2.77-.18-3,0-.19.15-.14,3.61-3,3l.5,4.99,1.5,1.52,172.01.49,1.99-1c1.02,3.92-1.84,2.78-1.99,3-.76,1.06-2,4.71-2,6,0,.11,1.64,1.33.98,1.96-.36.34-1.76-.15-1.98.04-.14.12-1.72,2.53-2,3-.16.27.35,1.49-.11,1.86l-173.45.07-3.44,2.08c-.16.45.09,1.36,0,2,1.39,4.81,3.01,2.36,6.58,2.95,1.22.2,2.29,1.04,2.42,1.05,4.11.36,8.77-.09,13,0-.56-3.02,1.53-1.94,3.45-2,48.55-1.62,97.4,1.23,145.98-.01.91-.11.69,1.42.57,2.01-1.45,7-20.56,30.55-26.47,36.03-2.78,2.58-6.25,4.39-9.03,6.97-2.5-3.52-4.2-7.56-5.2-11.79-1.17-4.94-.08-14.29-4.82-15.18l-137.81.89-1.75,5.58,5.08,64.5h-21l-3.67-46.77c-5.16-4.51-9.95-2.52-10.58,2.78.13.42.24.86.29,1.31.49,4.68,1.81,8.8,1.34,13.41,1.26,5.14-.01,11.96.08,16.88.1,5.53.13,10.97-6.48,11.74-3.07.36-6.72.8-10.06.33-.39.09-.82.15-1.28.15-.39,0-.76-.04-1.1-.11-1.37.86-5.21.24-6.54.27.56,3.03-1.53,1.92-3.45,2-28.62,1.13-57.47-.91-86.12.08-1.99.3-1.27-1.92-1.43-2.08s-2.39.56-2.08-1.43l.08-25.58c10.02.08,20.03.86,30.01,1.01l.51-2.01h1.48s0,2.01,0,2.01c9.97.13,20.03.07,30,0v-2s5.37-.02,5.37-.02l.63,2.02c3.3-.06,6.04-1.47,10.42-.91.05,0,.11.02.16.03.64-.37,1.41-.61,2.3-.66,3.83-.21,6.87-2.54,10.16-4.24.8-.41,1.58-.78,2.37-1.11,2.27-2.4,4.46-4.95,6.91-7.11h-.32c13.76-11.68,26.77-23.61,36.42-39.08,35.9-57.61,24.84-138.88-25.89-183.94l-19.53-13.97h195.5l22.5,18h-170.5l-1.51,2.45,4.71,7.6ZM396.54,369.65h-2c-1.02-2.12.93-5.02,1-6,.09-1.32-.06-2.67,0-4h-2c-1.02-2.12.93-5.02,1-6,.07-.99-.07-2.01,0-3h-2c-1.06-2.43.92-5.82,1-7,.06-.99-.03-2,0-3h-2c.15-2.67-.82-5.81,1-8-.11-1.65.05-3.34,0-5h-2c.21-1.53-.57-4.87.23-5.82.4-.47,1.63-.05,1.76-.18.16-.16-.56-2.39,1.43-2.08l121.58.08c.16,1.62-.23,3.43,0,5.01h1.99s.01,1.49.01,1.49l-2.01.51c.3,1.76,1.44,4.59,2.13,6.38,6.17,16.07,18.19,31.16,23.87,47.62l-140.61.08c-1.53.42-2.42-.68-3.38-1.07-.5-.2-1.8.59-2.05-.62-.97-1.92.99-4.6,1.05-5.38.09-1.32-.06-2.67,0-4ZM258.03,100.65c28.84-1.08,47.7,1.9,71.4,18.61,58.32,41.11,68.1,131.4,25.52,187.3-22.98,30.18-52.7,40.97-90.41,38.08l26.91-15.58c78.87-60.96,59.69-196.55-36.91-227.43-.24-1.74,2.28-.94,3.48-.99ZM57.41,227.03c-.44,4.8-6.19,23.56-12.96,15.21-3.93-4.85,2.64-5.62,4.64-7.55,3.57-3.45,3.46-18.64.48-22.57-1.64-2.17-5.63-2.78-6-4.04-.51-1.7,1.12-3.86,2.7-4.29,9.35-2.54,11.72,17.04,11.15,23.23ZM67.54,243.65l-.63,2.02-5.36-.03c-.56-1.82.93-1.8,1-1.99.45-1.28.58-2.7,1-4-2.03-1.33.33-4.71.09-6.93l1.91-.07c.11-.62-.08-1.36,0-2-1.69-4.36-1.68-11.72,0-16-.09-.64.13-1.43,0-2-3.79.67-1.91-3.76-2-5-.09-1.3-1.05-2.63-1-3.99,1.28-1.12,28.94.63,34,0,.18-.02.55-1.77,3-1v2c.82.68,2.49,3.81,3,5,3.84-.29,1.96,3.88,2,5,.02.66.02,1.34,0,2h2c.95,1.83-.96,4.33-1,5-.08,1.32.05,2.67,0,4,0,.18,1.11,1.41,1.07,3.39-.03,1.56-2.46,10.69-3.25,11.46-.49.49-1.71.02-1.82.15-.64.78-1.56,2.12-2,3-.19.38.14,1.39,0,2-1.05.4-1.88-.99-1.99-1-9.93-.69-19.74-.21-30-1ZM87.54,254.65c12.52.31,18.3,1.58,23.48-11.02,8.17-19.87,4.67-55.91-24.48-50.99,2.95-11.93,10.4-30.88,21.44-11.93,11.71,20.12,11.82,67.52-.64,87.24-10.9,17.25-18.57-1.75-19.8-13.3ZM134.31,295.38c-5.68-8.2-7.59-20.2-20.77-17.73,1.27-3.87,4.14-6.8,5.85-10.64,10.05-22.52,9.23-62.06.17-84.88-1.47-3.69-3.62-6.82-5.02-10.47,2.06.08,4.02.15,6.04-.46,6.19-1.87,18.74-23.29,24.44-29.56,40.88-44.97,114.95-43.17,155.03,2,48.03,54.13,37.11,149.52-27.84,185.19-49.88,27.39-105.99,12.59-137.9-33.45ZM194.53,351.1c9.86.14,19.89,3.44,30.01,2.55v27h-46l15.99-29.55ZM175.53,430.64l-19,1.02c.88-2.26-2.65-13.01.51-13.01h18.5v11.99ZM138.54,408.65v-18h198v18h-198ZM368.54,430.65h-32v-12h32v12ZM585.54,430.65h-19.5c-.51,0-2.1,1.59-3.49.99v-11.99s22.99,0,22.99,0v11ZM544.53,388.65l5.38-.02.63,2.02c3.33,0,6.67-.01,10,0v-1.99s1.49-.01,1.49-.01l.51,2.01h40v19l-256-1v-18c3.97.15,8.03-.2,12,0,6.8-1.67,16.2-1.67,23,0,6.32-.05,12.68.04,19,0-.56-3.02,1.53-1.94,3.45-2,42.04-1.41,90.13-1.66,132.09,0,1.93.08,4.01-1.03,3.45,2,1.67,0,3.33,0,5,0v-2ZM540.54,342.64c11.82-12.15,22.9-23.02,31.81-37.68,33.68-55.45,29.77-128.98-10.84-179.78l-21.46-20.54c75.41,16.34,108.36,105.81,78.35,173.37-13.41,30.18-43.6,61.41-77.86,64.63ZM563.54,348.64l16.72-8.77c130.33-5.25,152.26-175.12,66.8-252.25-45.15-40.75-94.94-43.55-153.56-39.36-8.14-2.44-7.96-10.81.77-12.38,12.39-2.23,43.22-.35,56.81.72,105.45,8.32,177.74,106.39,152.97,210.05-15.36,64.25-73.09,110.97-140.51,101.98Z"/>
  <path class="cls-1" d="M.08,254.65c1.93.06,4.01-1.02,3.45,2"/>
  <path class="cls-1" d="M510.54,92.65c-.23.27.79,2.45-1.44,2.07-64.41-1.73-129.81,2.08-194.1-.07-1.93-.06-4.01,1.02-3.45-2,66.31-.39,132.69.29,199,0Z"/>
  <path class="cls-1" d="M576.54,175.65c.02.7.41,2.14-.6,2.02l-172.41-.02v7.01c-3.11-1.34-2.95-6.99.24-8.26l172.76-.74Z"/>
  <path class="cls-1" d="M571.54,283.65c-.16.27.35,1.49-.11,1.86l-173.45.07-3.44,2.08c.37-1.01.03-2.27,1.57-2.91l4.88-1.14,170.55.05Z"/>
  <path class="cls-1" d="M416.54,293.65c-.56-3.02,1.53-1.94,3.45-2,48.55-1.62,97.4,1.23,145.98-.01.91-.11.69,1.42.57,2.01-49.95-.82-100.07,1.1-150,0Z"/>
  <path class="cls-1" d="M584.54,232.65c-.09.73.49,2.13-.6,2.02l-151.01.05c-1.27.69-3.19-1.06-3.39-1.07l155-1Z"/>
  <path class="cls-1" d="M400.54,390.65c-.56-3.02,1.53-1.94,3.45-2,42.04-1.41,90.13-1.66,132.09,0,1.93.08,4.01-1.03,3.45,2-46.31-.06-92.69-.29-139,0Z"/>
  <path class="cls-1" d="M327.54,380.65c.56,3.03-1.53,1.92-3.45,2-28.62,1.13-57.47-.91-86.12.08-1.99.3-1.27-1.92-1.43-2.08,30.3-.51,60.71.68,91,0Z"/>
  <path class="cls-1" d="M302.54,14.65l1,78c-.18.01-1.02,1.44-1.99,1-2.96-2.51.21-68.37-1.08-77.56l.21-1.34c.57-.43,1.47.04,1.86-.11Z"/>
  <path class="cls-1" d="M511.54,57.65c.66.03,1.34-.05,2,0l.07,32.56c.38,2.24-1.8,1.21-2.07,1.44v-34Z"/>
  <path class="cls-1" d="M448.54,260.65c.56,3.03-1.53,1.92-3.45,2-6.45.25-13.63.22-20.09,0-1.93-.06-4.01,1.02-3.45-2,8.98-.09,18.02.07,27,0Z"/>
  <path class="cls-1" d="M381.54,390.65c-7.86.06-14.83.42-23,0,6.8-1.67,16.2-1.67,23,0Z"/>
  <path class="cls-1" d="M65.54,230.65c-1.69-4.36-1.68-11.72,0-16,1.01,7.3.91,8.96,0,16Z"/>
  <path class="cls-1" d="M503.54,260.65c.56,3.03-1.53,1.92-3.45,2-2.99.12-6.1.1-9.09,0-1.92-.06-4.01,1.02-3.45-2h16Z"/>
  <path class="cls-1" d="M105.54,225.65c0,.18,1.11,1.41,1.07,3.39-.03,1.56-2.46,10.69-3.25,11.46-.49.49-1.71.02-1.82.15l4-15Z"/>
  <path class="cls-1" d="M511.54,13.65c.72.11,2.13-.5,2.02.6l-.03,12.4c-1.25.44-1.88-.98-1.99-1v-12Z"/>
  <path class="cls-1" d="M394.54,289.65c1.39,4.81,3.01,2.36,6.58,2.95,1.22.2,2.29,1.04,2.42,1.05-2.41,1.83-8.95,1.22-9.93-1.71-.58-1.08.9-2.05.93-2.29Z"/>
  <path class="cls-1" d="M393.54,340.65h-2c.15-2.67-.82-5.81,1-8,.14,2.04,1.11,4.57,1,8Z"/>
  <path class="cls-1" d="M394.54,350.65h-2c-1.06-2.43.92-5.82,1-7,1.61,1.26,1.14,4.93,1,7Z"/>
  <path class="cls-1" d="M65.54,232.65c-.54,3.03-1.14,4.33-2,7-2.03-1.33.33-4.71.09-6.93l1.91-.07Z"/>
  <path class="cls-1" d="M296.54,354.65v-2s5.37-.02,5.37-.02l.63,2.02c-2,.04-4-.01-6,0Z"/>
  <path class="cls-1" d="M392.54,321.65c.04,2-.06,4,0,6h-2c.21-1.53-.57-4.87.23-5.82.4-.47,1.63-.05,1.76-.18Z"/>
  <path class="cls-1" d="M544.54,390.65v-2s5.37-.02,5.37-.02l.63,2.02c-2,0-4,0-6,0Z"/>
  <path class="cls-1" d="M396.54,369.65h-2c-1.02-2.12.93-5.02,1-6,1.59,1.03,1.09,4.17,1,6Z"/>
  <path class="cls-1" d="M397.54,379.65c-.5-.2-1.8.59-2.05-.62-.97-1.92.99-4.6,1.05-5.38,1.77,1.12.86,4.12,1,6Z"/>
  <path class="cls-1" d="M395.54,359.65h-2c-1.02-2.12.93-5.02,1-6,1.59,1.04,1.09,4.17,1,6Z"/>
  <path class="cls-1" d="M67.54,243.65l-.63,2.02-5.36-.03c-.56-1.82.93-1.8,1-1.99,1.66.09,3.35-.13,5,0Z"/>
  <path class="cls-1" d="M104.54,216.65h2c.95,1.83-.96,4.33-1,5-1.53-.81-1.05-3.42-1-5Z"/>
  <path class="cls-1" d="M102.54,209.65c3.84-.29,1.96,3.88,2,5-1.69-1.22-1.35-3.49-2-5Z"/>
  <path class="cls-1" d="M65.54,212.65c-3.79.67-1.91-3.76-2-5,1.5,1.3,1.59,3.24,2,5Z"/>
  <path class="cls-1" d="M583.54,244.65c.5,1.24,1.61,2.11,1,4h-2c-.02-1.31-.46-3.32,1-4Z"/>
  <polygon class="cls-1" points="480.54 260.65 480.54 262.65 477.09 262.66 476.54 260.65 480.54 260.65"/>
  <path class="cls-1" d="M464.54,260.65v2s-3.45.02-3.45.02l-.55-2.01c1.33,0,2.67,0,4,0Z"/>
  <path class="cls-1" d="M405.54,260.65c-.19.15-.14,3.61-3,3-.07-2.04,1-3.08,3-3Z"/>
  <path class="cls-1" d="M581.54,256.65c.05.36,1.67,1.58,1,3-.6.17-1.65-.19-2,0l1-3Z"/>
  <path class="cls-1" d="M582.54,251.65c.02.27,1.64,1.57.99,2.99h-1.99c-.02-1.09-.26-2.51,1-2.99Z"/>
  <path class="cls-1" d="M96.54,203.65c.18-.02.55-1.77,3-1v2c-.23-.2-2.39.11-3-1Z"/>
  <path class="cls-1" d="M582.54,196.65c3.73-.36,1.5,1.3,1,3-1.25-.47-1.02-1.91-1-3Z"/>
  <path class="cls-1" d="M576.54,270.65l1.99-1c1.02,3.92-1.84,2.78-1.99,3v-2Z"/>
  <path class="cls-1" d="M411.54,260.65v2s-2.49,0-2.49,0l-.51-2.01c.98-.09,2.01.03,3,0Z"/>
  <path class="cls-1" d="M581.54,191.65c3.93-.36,1.11,1.34,1,2l-1-2Z"/>
  <path class="cls-1" d="M574.54,278.65c0,.11,1.64,1.33.98,1.96-.36.34-1.76-.15-1.98.04l1-2Z"/>
  <path class="cls-1" d="M560.54,390.65v-1.99s1.49-.01,1.49-.01l.51,2.01c-.67,0-1.33,0-2,0Z"/>
  <path class="cls-1" d="M515.54,324.65h1.99s.01,1.49.01,1.49l-2.01.51c-.11-.62.09-1.36,0-2Z"/>
  <path class="cls-1" d="M472.54,260.65v1.99s-1.49.01-1.49.01l-.51-2.01c.67,0,1.33,0,2,0Z"/>
  <path class="cls-1" d="M99.54,243.65c-.19.38.14,1.39,0,2-1.05.4-1.88-.99-1.99-1l2-1Z"/>
  <path class="cls-1" d="M453.54,260.65v1.99s-1.49.01-1.49.01l-.51-2.01c.67,0,1.33,0,2,0Z"/>
  <path class="cls-1" d="M264.54,354.65l.51-2.01h1.48s0,2.01,0,2.01c-.67,0-1.33,0-2,0Z"/>
  <path class="cls-1" d="M578.54,260.65c-.26.25.56,2.1-.51,2.01h-1.48s0-2.01,0-2.01h2Z"/>
  <path class="cls-1" d="M507.54,13.65c-1-.03-2,.02-3,0,.14-1.5,2.86-1.5,3,0Z"/>
  <path class="cls-1" d="M210.33,138.94c74.27-7.59,114.68,85.98,70.18,141.18-60.25,74.75-161.66,5.33-137.69-79.69,8.67-30.76,34.56-58.13,67.51-61.49ZM213.54,149.65c-14.91,1.02-29.49,8.11-39.93,18.64l20.57,21.26c6.1-3.76,11.92-7.4,19.36-7.9v-32ZM223.54,181.65c7.81.13,14.02,3.97,20.36,7.9l20.57-20.53c-9.34-11.79-25.86-19.11-40.93-19.36v32ZM178.54,219.65c-.69-8.42,4.29-15.32,7.9-22.36l-20.4-20.62c-9.01,12.75-14.69,27.41-16.5,42.98h29ZM288.54,219.65c-1.54-15.58-6.92-30.65-16.53-43l-20.36,19.71c3.25,7.38,8.55,14.56,8.89,23.29h28ZM218.21,192.03c-40.95,1.28-38.73,68.16,1.84,66.68,40.84-1.48,39.51-67.97-1.84-66.68ZM178.54,230.65h-29c1.97,15.25,6.12,30.26,16.5,41.98l19.37-19.69c-2.29-7.21-7.77-13.97-6.87-22.29ZM288.54,230.65h-28c-.37,8.31-4.4,15.67-8.93,22.36l20.43,20.62c9.65-12.44,14.89-27.37,16.5-42.98ZM213.35,268.83c-7.68-.37-13.6-4.8-20.17-8.03l-20.65,20.83c3.33.53,5,4.03,7.52,6,9.31,7.24,21.6,12.71,33.48,13.03-1.11-10.63,2.97-21.42-.19-31.82ZM224.54,300.65c15.82-.39,29.68-9.1,40.98-19.5l-20.68-20.4c-1.37-.35-7.77,4.32-10.32,5.38-3.07,1.28-6.6,2.53-9.98,2.52v32Z"/>
  <path class="cls-1" d="M436.26,61.88c24.86-5.16,23.08,30.82,1.84,27.71-14.4-2.11-15.84-24.8-1.84-27.71ZM439.27,69.8c-5.77,1.54-5.46,13.44,3.57,10.66,6.14-1.89,3.44-12.54-3.57-10.66Z"/>
  <path class="cls-1" d="M216.28,210.87c21.31-3.66,22.35,31.2-.18,27.71-14.19-2.2-14.4-25.2.18-27.71ZM222.39,221.8c-1.9-3.01-9.95-.19-7.4,4.84,2.68,5.29,10.74.46,7.4-4.84Z"/>
</svg>