<?xml version="1.0" encoding="UTF-8"?>
<svg id="Layer_1" data-name="Layer 1" xmlns="http://www.w3.org/2000/svg" xmlns:xlink="http://www.w3.org/1999/xlink" viewBox="0 0 2745.31 1862.71">
  <defs>
    <style>
      .cls-1 {
        clip-path: url(#clippath-6);
      }

      .cls-2 {
        clip-path: url(#clippath-7);
      }

      .cls-3 {
        fill: #629fe5;
      }

      .cls-4 {
        fill: #5797e3;
      }

      .cls-5 {
        fill: #4b90e1;
      }

      .cls-6 {
        clip-path: url(#clippath-4);
      }

      .cls-7 {
        fill: #5294e2;
      }

      .cls-8 {
        fill: #5798e3;
      }

      .cls-9 {
        fill: #4a90e2;
      }

      .cls-10 {
        fill: #121212;
      }

      .cls-11 {
        fill: #f3f7fc;
      }

      .cls-12 {
        fill: #4d92e2;
      }

      .cls-13 {
        fill: #4f93e2;
      }

      .cls-14 {
        letter-spacing: 0em;
      }

      .cls-15 {
        letter-spacing: 0em;
      }

      .cls-16 {
        fill: #4c91e1;
      }

      .cls-17 {
        fill: none;
      }

      .cls-18 {
        fill: #ccc;
        font-family: Roboto-Regular, Roboto;
        font-size: 40px;
      }

      .cls-19 {
        clip-path: url(#clippath-1);
      }

      .cls-20 {
        fill: #ecf3fb;
      }

      .cls-21 {
        clip-path: url(#clippath-5);
      }

      .cls-22 {
        letter-spacing: 0em;
      }

      .cls-23 {
        fill: #0571d3;
      }

      .cls-24 {
        fill: #4e92e2;
      }

      .cls-25 {
        clip-path: url(#clippath-3);
      }

      .cls-26 {
        fill: #6aa3e6;
      }

      .cls-27 {
        fill: #f6f9fd;
      }

      .cls-28 {
        fill: #4d91e2;
      }

      .cls-29 {
        fill: #5899e3;
      }

      .cls-30 {
        clip-path: url(#clippath-2);
      }

      .cls-31 {
        letter-spacing: -.02em;
      }

      .cls-32 {
        clip-path: url(#clippath);
      }
    </style>
    <clipPath id="clippath">
      <rect class="cls-17" x="994.29" y="1563.47" width="1.89" height="2.24" transform="translate(-749.81 2191.69) rotate(-77.31)"/>
    </clipPath>
    <clipPath id="clippath-1">
      <path class="cls-17" d="M996.16,1565c-4.57,1.04-.26-1.09-.26-1.09l.26,1.09Z"/>
    </clipPath>
    <clipPath id="clippath-2">
      <rect class="cls-17" x="1709.96" y="1558.23" width="2.24" height="1.91" transform="translate(-293.54 401.46) rotate(-12.33)"/>
    </clipPath>
    <clipPath id="clippath-3">
      <path class="cls-17" d="M1712.09,1559.15c-3.69,2.9-.67-.89-.67-.89l.67.89Z"/>
    </clipPath>
    <clipPath id="clippath-4">
      <rect class="cls-17" x="1760.34" y="772.92" width="534.33" height="175.29" transform="translate(-10.61 1695.69) rotate(-45.28)"/>
    </clipPath>
    <clipPath id="clippath-5">
      <rect class="cls-17" x="1656.29" y="1277.16" width="186.9" height="483.57" transform="translate(-567.32 1521.68) rotate(-41.03)"/>
    </clipPath>
    <clipPath id="clippath-6">
      <rect class="cls-17" x="789.05" y="1439.53" width="480.93" height="186.9" transform="translate(-802.75 1303.31) rotate(-48.97)"/>
    </clipPath>
    <clipPath id="clippath-7">
      <rect class="cls-17" x="962.36" y="53.84" width="905.46" height="175.29" transform="translate(-7.05 144.16) rotate(-5.82)"/>
    </clipPath>
  </defs>
  <path class="cls-9" d="M1101.25,941.69c1.31.04,2.73-.76,2.35,1.48"/>
  <g>
    <path class="cls-9" d="M1078.52,926.39c-1.15-3.24-1.14-8.7,0-11.88.69,5.42.62,6.65,0,11.88Z"/>
    <path class="cls-9" d="M1105.72,922.68c0,.13.75,1.05.73,2.52-.02,1.16-1.67,7.94-2.21,8.51-.33.36-1.16.01-1.24.11l2.72-11.13Z"/>
    <path class="cls-9" d="M1078.52,927.88c-.37,2.25-.78,3.21-1.36,5.2-1.38-.99.22-3.5.06-5.14l1.3-.05Z"/>
    <path class="cls-9" d="M1404.21,1045.16v-1.48h3.65s.43,1.48.43,1.48h-4.08Z"/>
    <path class="cls-9" d="M1079.88,936.04l-.43,1.5-3.64-.02c-.38-1.35.63-1.34.68-1.48,1.13.07,2.28-.1,3.4,0h0Z"/>
    <path class="cls-9" d="M1105.04,916h1.36c.65,1.36-.65,3.21-.68,3.71-1.04-.6-.71-2.54-.68-3.71Z"/>
    <path class="cls-9" d="M1103.68,910.8c2.61-.22,1.33,2.88,1.36,3.71-1.15-.91-.92-2.59-1.36-3.71Z"/>
    <path class="cls-9" d="M1078.52,913.03c-2.58.5-1.3-2.79-1.36-3.71,1.02.97,1.08,2.41,1.36,3.71Z"/>
    <path class="cls-9" d="M1430.73,936.78c.34.92,1.09,1.57.68,2.97h-1.36c-.01-.97-.31-2.46.68-2.97Z"/>
    <path class="cls-9" d="M1429.37,945.69c.03.27,1.14,1.17.68,2.23-.41.13-1.12-.14-1.36,0l.68-2.23Z"/>
    <path class="cls-9" d="M1430.05,941.98c.01.2,1.12,1.17.67,2.22h-1.35c-.01-.81-.18-1.86.68-2.22Z"/>
    <path class="cls-9" d="M1099.6,906.35c.12-.01.37-1.31,2.04-.74v1.48c-.16-.15-1.63.08-2.04-.74Z"/>
    <path class="cls-9" d="M1430.05,901.15c2.54-.27,1.02.97.68,2.23-.85-.35-.69-1.42-.68-2.23Z"/>
    <path class="cls-9" d="M1425.97,956.08l1.35-.74c.69,2.91-1.25,2.06-1.35,2.23v-1.48Z"/>
    <path class="cls-9" d="M1429.37,897.44c2.67-.27.75.99.68,1.48l-.68-1.48Z"/>
    <path class="cls-9" d="M1424.61,962.02c0,.08,1.12.99.67,1.45-.24.25-1.2-.11-1.35.03l.68-1.48Z"/>
    <path class="cls-9" d="M1415.09,1045.16v-1.48h1.01s.35,1.48.35,1.48h-1.36Z"/>
    <path class="cls-9" d="M1384.49,996.17h1.35v1.11s-1.36.38-1.36.38c-.07-.46.06-1.01,0-1.48h0Z"/>
    <path class="cls-9" d="M1101.64,936.04c-.13.28.1,1.03,0,1.48-.71.3-1.28-.73-1.35-.74l1.36-.74h0Z"/>
    <path class="cls-9" d="M1427.33,948.66c-.18.19.38,1.56-.35,1.49h-1.01v-1.49h1.36,0Z"/>
    <g>
      <ellipse class="cls-9" cx="1368.34" cy="930.02" rx="331.39" ry="330.54"/>
      <circle class="cls-10" cx="1368.38" cy="929.98" r="316.67"/>
    </g>
    <path class="cls-9" d="M1552.85,764.46c-25.01-20.75-53.61-28.01-84.92-26.43v-13.73c0-1.68-3.41-3.89-5.07-3.38l-149.78.59c-.5.24-2.22,1.75-2.22,2.03v62.73c-15.26.5-30.66-1.66-45.55,2.61-8.08,2.31-14.56,3.21-22.44,5.19-22.7,5.68-38.61,22.72-50.31,43.8-5.19.98-10.57-.45-15.64,1.48-7.57,2.9-10.64,14.75-11.59,22.6-10.24,1.56-28.59-5.66-29.21,11.16l-8.78-.23v22.26l8.04-.43c.99,18.83,17.69,11.78,29.35,13.61,2.78,9.72,4.6,21.33,15.43,23.23,3.81.68,8.24-.09,11.99,1.75,4.3,5.8,7.49,12.43,11.99,18.09,8.74,10.99,20.58,20.24,33.3,24.9l-11.69,25.08c-4.59.24-9.23.22-13.83.19-4.25-.03-11.1-2.52-11.89,4.78-.43,4.02-.49,15.41-.02,19.35.67,5.62,7.72,4.77,11.6,4.78.45,4.01-.58,14.61,3.36,16,2.14.76,19.37.76,22.1.28,1.34-.24,3.78-1.84,3.78-3.3v-12.62l93.15-.37v12.25c0,.7,2.58,4.19,3.76,4.06l30.41-.18c6.2-2.75,2.47-10.48,3.23-16.13h116.27v12.99c0,1.45,2.44,3.06,3.78,3.3,4.31.76,17.13.55,21.74.08,1.69-.17,5.07-1.09,5.07-3.38v-12.99c3.07-.35,9.61,1.48,10.74-2.75.61-2.32.48-18.32.16-21.39-.42-3.99-2.34-5.13-5.79-5.55-10.38-1.27-22.62,1.04-33.21-.12l-8.6-17.7c26.16,6.95,56.99,2.54,78.81-15.28,61.73-50.43,51.02-154.72-7.49-203.25h-.01ZM1316.94,730.94l.14-.99c.39-.32,1,.03,1.26-.08.65-.28,1.26-1.11,2.3-.79,45,.68,90.06-.73,135.05.05.1-1.11,1.94-1.11,2.04,0,.88.03,1.9-.13,2.72,0,.49.08,1.45-.37,1.37.45l-.02,9.2c-.85.33-1.28-.73-1.35-.74-2-.3-4.33.27-6.43-.04-1.22-.18-2.01-1.42-4.09-1.53-12.74-.68-17.89,19.25-6.07,25.24,6.47,3.28,10.04-.26,16.58.08.45.02.91-.04,1.36,0l.05,24.17c.26,1.66-1.22.9-1.41,1.07-.19.18-.52.53-.68.74-.16.2.54,1.82-.98,1.54-43.79-1.28-88.26,1.54-131.98-.05-1.31-.04-2.73.76-2.35-1.48-1.8.01-3.66-.13-5.44,0-.12,0-.69,1.07-1.35.74-2.01-1.86.14-50.75-.73-57.57h0ZM1467.92,787.77v-25.98c30.39-1.4,57.55,6.06,80.24,28.57,49.22,48.83,43.41,158.05-30.6,171.85,16.44-17.04,27.11-39.56,29.83-64.3,5.81-52.73-27.69-109.97-79.46-110.14h0ZM1368.45,816.76l120.22.7c2.32.48,7.36,10.92,9.17,13.37h-117.29c-2.45,0-2.39,7.48,2.69,8.2,37.61-.83,75.33.97,112.93,0,1.6-.04,3.05-.76,4.64-.84,1.56,3.13,3.72,7.59,3.83,11.19.01.52.28,1.59-.41,1.5h-117.23s0,5.19,0,5.19l119.93.7,1.09,4.5c2.67-.27.75.99.68,1.48-.1.65.01,1.51,0,2.23,2.54-.27,1.02.97.68,2.23-.17.64.45,2.03-.37,2.27l-117.6-.04c-3,.63-1.82,5.73,0,7.42h118.65c-.39,4.7.53,10.28,0,14.85-.06.54.33,1.58-.41,1.5l-102.68.04c-.86.51-2.17-.79-2.3-.79-2.96-.24-13.76-2.63-14.83,1.27-.45,1.63-.31,4.23,1.22,5.05l118.23.48c.29.42-.03,1.09.07,1.37.34.92,1.09,1.57.68,2.97h-1.36c0,.74-.05,1.5,0,2.23.01.2,1.12,1.17.67,2.22h-1.35c0,.49-.05,1.02,0,1.49.03.27,1.14,1.17.68,2.23-.41.13-1.12-.14-1.36,0-.4.24-1.31.68-1.36.74-.18.19.38,1.56-.35,1.49h-1.01v-1.49h-49.64c.38,2.25-1.04,1.43-2.35,1.48-2.03.09-4.15.07-6.18,0-1.31-.04-2.73.76-2.35-1.48h-4.76v1.48h-2.35s-.37-1.48-.37-1.48h-2.72v1.48h-1.01s-.35-1.48-.35-1.48h-4.08v1.48h-2.35s-.37-1.48-.37-1.48h-4.76v1.48h-1.01s-.35-1.48-.35-1.48h-2.04c.38,2.25-1.04,1.43-2.35,1.48-4.39.19-9.27.16-13.66,0-1.31-.04-2.73.76-2.35-1.48-2.26.02-4.54-.07-6.8,0v1.48h-1.69l-.35-1.49c-.54.05-1.88-.13-2.04,0-.13.11-.1,2.68-2.04,2.23l.34,3.7,1.02,1.13,116.96.36,1.35-.74c.69,2.91-1.25,2.06-1.35,2.23-.52.79-1.36,3.5-1.36,4.45,0,.08,1.12.99.67,1.45-.24.25-1.2-.11-1.35.03-.1.09-1.17,1.88-1.36,2.23-.11.2.24,1.11-.07,1.38l-117.94.05-2.34,1.54c-.11.33.06,1.01,0,1.48.95,3.57,2.05,1.75,4.47,2.19.83.15,1.56.77,1.65.78,2.79.27,5.96-.07,8.84,0-.38-2.24,1.04-1.44,2.35-1.48,33.01-1.2,66.23.91,99.26,0,.62-.08.47,1.05.39,1.49-.99,5.2-13.98,22.68-18,26.75-1.89,1.92-4.25,3.26-6.14,5.17-1.7-2.61-2.86-5.61-3.54-8.75-.8-3.67-.05-10.61-3.28-11.27l-93.7.66-1.19,4.14,3.45,47.88h-14.28l-2.5-34.72c-3.51-3.35-6.77-1.87-7.19,2.06.09.31.16.64.2.97.33,3.47,1.23,6.53.91,9.95.86,3.82,0,8.88.05,12.53.07,4.11.09,8.14-4.41,8.71-2.09.27-4.57.59-6.84.24-.27.07-.56.11-.87.11-.27,0-.52-.03-.75-.08-.93.64-3.54.18-4.45.2.38,2.25-1.04,1.43-2.35,1.48-19.46.84-39.08-.68-58.56.06-1.35.22-.86-1.43-.97-1.54s-1.63.42-1.41-1.06l.05-18.99c6.81.06,13.62.64,20.4.75l.35-1.49h1.01v1.49c6.78.1,13.62.05,20.4,0v-1.48h3.65s.43,1.48.43,1.48c2.24-.04,4.11-1.09,7.08-.68.03,0,.07.01.11.02.44-.27.96-.45,1.56-.49,2.6-.16,4.67-1.89,6.91-3.15.54-.3,1.07-.58,1.61-.82,1.54-1.78,3.03-3.67,4.7-5.28h-.22c9.36-8.67,18.2-17.53,24.76-29.01,24.41-42.76,16.89-103.09-17.6-136.54l-13.28-10.37h132.93l15.3,13.36h-115.93l-1.03,1.82,3.2,5.64h-.01ZM1382.25,993.4h-1.36c-.69-1.57.63-3.73.68-4.45.06-.98-.04-1.98,0-2.97h-1.36c-.69-1.57.63-3.73.68-4.45.05-.73-.05-1.49,0-2.23h-1.36c-.72-1.8.63-4.32.68-5.2.04-.73-.02-1.48,0-2.23h-1.36c.1-1.98-.56-4.31.68-5.94-.07-1.22.03-2.48,0-3.71h-1.36c.14-1.14-.39-3.62.16-4.32.27-.35,1.11-.04,1.2-.13.11-.12-.38-1.77.97-1.54l82.67.06c.11,1.2-.16,2.55,0,3.72h1.35v1.11s-1.36.38-1.36.38c.2,1.31.98,3.41,1.45,4.74,4.2,11.93,12.37,23.13,16.23,35.35l-95.61.06c-1.04.31-1.65-.5-2.3-.79-.34-.15-1.22.44-1.39-.46-.66-1.43.67-3.41.71-3.99.06-.98-.04-1.98,0-2.97h0ZM1288.07,793.71c19.61-.8,32.43,1.41,48.55,13.81,39.65,30.52,46.3,97.54,17.35,139.04-15.62,22.4-35.83,30.41-61.47,28.27l18.3-11.57c53.63-45.25,40.59-145.9-25.1-168.83-.16-1.29,1.55-.7,2.37-.73h0ZM1151.67,887.53c-.3,3.56-4.21,17.49-8.81,11.29-2.67-3.6,1.8-4.17,3.15-5.6,2.43-2.56,2.35-13.84.33-16.75-1.12-1.61-3.83-2.06-4.08-3-.35-1.26.76-2.87,1.84-3.18,6.36-1.89,7.97,12.65,7.58,17.24h0ZM1158.55,899.86l-.43,1.5-3.64-.02c-.38-1.35.63-1.34.68-1.48.31-.95.39-2,.68-2.97-1.38-.99.22-3.5.06-5.14l1.3-.05c.07-.46-.05-1.01,0-1.48-1.15-3.24-1.14-8.7,0-11.88-.06-.48.09-1.06,0-1.48-2.58.5-1.3-2.79-1.36-3.71-.06-.97-.71-1.95-.68-2.96.87-.83,19.68.47,23.12,0,.12-.01.37-1.31,2.04-.74v1.48c.56.5,1.69,2.83,2.04,3.71,2.61-.22,1.33,2.88,1.36,3.71.01.49.01.99,0,1.48h1.36c.65,1.36-.65,3.21-.68,3.71-.05.98.03,1.98,0,2.97,0,.13.75,1.05.73,2.52-.02,1.16-1.67,7.94-2.21,8.51-.33.36-1.16.01-1.24.11-.44.58-1.06,1.57-1.36,2.23-.13.28.1,1.03,0,1.48-.71.3-1.28-.73-1.35-.74-6.75-.51-13.42-.16-20.4-.74h-.01ZM1172.15,908.03c8.51.23,12.44,1.17,15.96-8.18,5.56-14.75,3.18-41.5-16.64-37.85,2.01-8.86,7.07-22.92,14.58-8.86,7.96,14.94,8.04,50.12-.44,64.76-7.41,12.8-12.63-1.3-13.46-9.87h0ZM1203.96,938.26c-3.86-6.09-5.16-14.99-14.12-13.16.86-2.87,2.81-5.05,3.98-7.9,6.83-16.72,6.28-46.07.12-63.01-1-2.74-2.46-5.06-3.41-7.77,1.4.06,2.73.11,4.11-.34,4.21-1.39,12.74-17.29,16.62-21.94,27.8-33.38,78.16-32.05,105.41,1.48,32.66,40.18,25.23,110.99-18.93,137.47-33.92,20.33-72.07,9.35-93.76-24.83h0ZM1244.9,979.63c6.7.1,13.52,2.55,20.4,1.89v20.04h-31.28l10.87-21.94ZM1231.99,1038.67l-12.92.76c.6-1.68-1.8-9.66.35-9.66h12.58v8.9h0ZM1206.83,1022.35v-13.36h134.63v13.36h-134.63ZM1363.21,1038.68h-21.76v-8.91h21.76v8.91ZM1510.76,1038.68h-13.26c-.35,0-1.43,1.18-2.37.73v-8.9h15.63v8.17ZM1482.88,1007.5h3.66s.43,1.48.43,1.48c2.26,0,4.54,0,6.8,0v-1.48h1.01s.35,1.48.35,1.48h27.2v14.1l-174.06-.74v-13.36c2.7.11,5.46-.15,8.16,0,4.62-1.24,11.01-1.24,15.64,0,4.3-.04,8.62.03,12.92,0-.38-2.24,1.04-1.44,2.35-1.48,28.58-1.05,61.28-1.23,89.81,0,1.31.06,2.73-.76,2.35,1.48h3.4v-1.48h0ZM1480.16,973.35c8.04-9.02,15.57-17.09,21.63-27.97,22.9-41.16,20.24-95.74-7.37-133.45l-14.59-15.25c51.27,12.13,73.68,78.54,53.27,128.7-9.12,22.4-29.65,45.59-52.94,47.98h0ZM1495.81,977.8l11.37-6.51c88.62-3.9,103.53-129.99,45.42-187.25-30.7-30.25-64.55-32.33-104.41-29.22-5.53-1.81-5.41-8.02.52-9.19,8.42-1.66,29.39-.26,38.63.53,71.7,6.18,120.85,78.98,104.01,155.92-10.44,47.69-49.7,82.38-95.54,75.7h0Z"/>
    <path class="cls-9" d="M1459.76,787.77c-.16.2.54,1.82-.98,1.54-43.79-1.28-88.26,1.54-131.98-.05-1.31-.04-2.73.76-2.35-1.48,45.09-.29,90.22.22,135.31,0h0Z"/>
    <path class="cls-9" d="M1504.64,849.39c.01.52.28,1.59-.41,1.5h-117.23s0,5.19,0,5.19c-2.11-.99-2.01-5.19.16-6.13l117.47-.55h0Z"/>
    <path class="cls-9" d="M1501.24,929.56c-.11.2.24,1.11-.07,1.38l-117.94.05-2.34,1.54c.25-.75.02-1.69,1.07-2.16l3.32-.85,115.96.04h0Z"/>
    <path class="cls-9" d="M1395.85,936.98c-.38-2.24,1.04-1.44,2.35-1.48,33.01-1.2,66.23.91,99.26,0,.62-.08.47,1.05.39,1.49-33.96-.61-68.04.82-101.99,0Z"/>
    <path class="cls-9" d="M1510.08,891.7c-.06.54.33,1.58-.41,1.5l-102.68.04c-.86.51-2.17-.79-2.3-.79l105.39-.74Z"/>
    <path class="cls-9" d="M1384.97,1008.98c-.38-2.24,1.04-1.44,2.35-1.48,28.58-1.05,61.28-1.23,89.81,0,1.31.06,2.73-.76,2.35,1.48-31.49-.04-63.02-.22-94.51,0h0Z"/>
    <path class="cls-9" d="M1335.34,1001.56c.38,2.25-1.04,1.43-2.35,1.48-19.46.84-39.08-.68-58.56.06-1.35.22-.86-1.43-.97-1.54,20.6-.38,41.28.5,61.87,0Z"/>
    <path class="cls-9" d="M1318.34,729.87l.68,57.9c-.12,0-.69,1.07-1.35.74-2.01-1.86.14-50.75-.73-57.57l.14-.99c.39-.32,1,.03,1.26-.08h0Z"/>
    <path class="cls-9" d="M1460.44,761.79c.45.02.91-.04,1.36,0l.05,24.17c.26,1.66-1.22.9-1.41,1.07v-25.24Z"/>
    <path class="cls-9" d="M1417.61,912.48c.38,2.25-1.04,1.43-2.35,1.48-4.39.19-9.27.16-13.66,0-1.31-.04-2.73.76-2.35-1.48,6.11-.07,12.25.05,18.36,0h0Z"/>
    <path class="cls-9" d="M1372.05,1008.98c-5.34.04-10.08.31-15.64,0,4.62-1.24,11.01-1.24,15.64,0Z"/>
    <path class="cls-9" d="M1455,912.48c.38,2.25-1.04,1.43-2.35,1.48-2.03.09-4.15.07-6.18,0-1.31-.04-2.73.76-2.35-1.48h10.88,0Z"/>
    <path class="cls-9" d="M1460.44,729.13c.49.08,1.45-.37,1.37.45l-.02,9.2c-.85.33-1.28-.73-1.35-.74v-8.91Z"/>
    <path class="cls-9" d="M1380.89,934.01c.95,3.57,2.05,1.75,4.47,2.19.83.15,1.56.77,1.65.78-1.64,1.36-6.09.91-6.75-1.27-.39-.8.61-1.52.63-1.7Z"/>
    <path class="cls-9" d="M1380.21,971.87h-1.36c.1-1.98-.56-4.31.68-5.94.1,1.51.75,3.39.68,5.94Z"/>
    <path class="cls-9" d="M1380.89,979.29h-1.36c-.72-1.8.63-4.32.68-5.2,1.09.94.78,3.66.68,5.2Z"/>
    <path class="cls-9" d="M1314.26,982.26v-1.48h3.65s.43,1.48.43,1.48c-1.36.03-2.72,0-4.08,0Z"/>
    <path class="cls-9" d="M1379.53,957.76c.03,1.48-.04,2.97,0,4.45h-1.36c.14-1.14-.39-3.62.16-4.32.27-.35,1.11-.04,1.2-.13h0Z"/>
    <path class="cls-9" d="M1382.25,993.4h-1.36c-.69-1.57.63-3.73.68-4.45,1.08.76.74,3.1.68,4.45Z"/>
    <path class="cls-9" d="M1382.93,1000.82c-.34-.15-1.22.44-1.39-.46-.66-1.43.67-3.41.71-3.99,1.2.83.58,3.06.68,4.45Z"/>
    <path class="cls-9" d="M1381.57,985.97h-1.36c-.69-1.57.63-3.73.68-4.45,1.08.77.74,3.1.68,4.45Z"/>
    <polygon class="cls-9" points="1439.37 912.48 1439.37 913.97 1437.03 913.97 1436.65 912.48 1439.37 912.48"/>
    <path class="cls-9" d="M1428.49,912.48v1.48h-2.35s-.37-1.48-.37-1.48h2.72Z"/>
    <path class="cls-9" d="M1388.37,912.48c-.13.11-.1,2.68-2.04,2.23-.05-1.51.68-2.29,2.04-2.23Z"/>
    <path class="cls-9" d="M1392.45,912.48v1.48h-1.69l-.35-1.49c.67-.07,1.37.02,2.04,0h0Z"/>
    <path class="cls-9" d="M1433.93,912.48v1.48h-1.01s-.35-1.48-.35-1.48h1.36Z"/>
    <path class="cls-9" d="M1421.01,912.48v1.48h-1.01s-.35-1.48-.35-1.48h1.36Z"/>
    <path class="cls-9" d="M1292.5,982.26l.35-1.49h1.01v1.49h-1.36,0Z"/>
    <path class="cls-9" d="M1457.72,729.13c-.68-.02-1.36.01-2.04,0,.1-1.11,1.94-1.11,2.04,0Z"/>
    <path class="cls-9" d="M1255.65,822.14c50.5-5.63,77.98,63.82,47.72,104.8-40.97,55.49-109.92,3.96-93.62-59.16,5.9-22.83,23.5-43.15,45.9-45.65h0ZM1257.82,830.09c-10.14.76-20.05,6.02-27.15,13.84l13.99,15.78c4.15-2.79,8.1-5.49,13.16-5.86v-23.75ZM1264.62,853.84c5.31.1,9.53,2.95,13.84,5.86l13.99-15.24c-6.35-8.75-17.58-14.19-27.83-14.37v23.75h0ZM1234.03,882.05c-.47-6.25,2.92-11.37,5.37-16.6l-13.87-15.31c-6.13,9.46-9.99,20.35-11.22,31.9h19.72ZM1308.82,882.05c-1.05-11.57-4.71-22.75-11.24-31.92l-13.84,14.63c2.21,5.48,5.81,10.81,6.04,17.29h19.04ZM1261,861.54c-27.84.95-26.33,50.6,1.25,49.5,27.77-1.1,26.86-50.46-1.25-49.5ZM1234.03,890.21h-19.72c1.34,11.32,4.16,22.46,11.22,31.16l13.17-14.62c-1.56-5.35-5.28-10.37-4.67-16.55ZM1308.82,890.21h-19.04c-.25,6.17-2.99,11.63-6.07,16.6l13.89,15.31c6.56-9.23,10.12-20.32,11.22-31.9h0ZM1257.7,918.55c-5.22-.27-9.25-3.56-13.71-5.96l-14.04,15.46c2.26.39,3.4,2.99,5.11,4.45,6.33,5.37,14.69,9.43,22.76,9.67-.75-7.89,2.02-15.9-.13-23.62h0ZM1265.3,942.18c10.76-.29,20.18-6.76,27.86-14.48l-14.06-15.14c-.93-.26-5.28,3.21-7.02,3.99-2.09.95-4.49,1.88-6.79,1.87v23.75Z"/>
    <path class="cls-9" d="M1409.27,764.93c16.9-3.83,15.69,22.88,1.25,20.57-9.79-1.57-10.77-18.41-1.25-20.57ZM1411.31,770.81c-3.92,1.14-3.71,9.98,2.43,7.91,4.17-1.4,2.34-9.31-2.43-7.91Z"/>
    <path class="cls-9" d="M1259.69,875.53c14.49-2.72,15.2,23.16-.12,20.57-9.65-1.63-9.79-18.71.12-20.57ZM1263.84,883.64c-1.29-2.23-6.77-.14-5.03,3.59,1.82,3.93,7.3.34,5.03-3.59Z"/>
    <text class="cls-18" transform="translate(1218.98 1125.29)"><tspan x="0" y="0">Air engine drives </tspan><tspan x="62.19" y="48">gene</tspan><tspan class="cls-31" x="149.08" y="48">r</tspan><tspan x="161.84" y="48">a</tspan><tspan class="cls-15" x="183.59" y="48">t</tspan><tspan x="196.27" y="48">or</tspan></text>
  </g>
  <g>
    <g>
      <ellipse class="cls-9" cx="2413.92" cy="1528.62" rx="331.39" ry="330.54"/>
      <circle class="cls-10" cx="2413.96" cy="1528.58" r="316.67"/>
    </g>
    <path class="cls-9" d="M2458.94,1445.59h-5.68v-30.39h-6.04v7.7c0,2.63-2.55,4.72-4.78,4.95-14.16,1.48-30.38-1.14-44.76,0-1.37.22-4.08-2.55-4.08-3.76v-8.88h-6.39v30.39h-6.04v-133.98c0-1.56,2.58-3.71,4.07-3.37h69.62c1.21-.45,4.07,1.88,4.07,2.98v134.38ZM2453.26,1314.96h-66.04v18.94h5.86l.53-.59v-9.08c0-1.21,2.71-3.97,4.08-3.76l46.25.31c1.69.62,3.29,3.1,3.29,5.02v8.09h6.04v-18.94h0ZM2441.19,1326.8h-41.9v19.73h41.9v-19.73ZM2393.61,1340.22h-6.39v30.78h6.39v-9.27c0-1.21,2.71-3.97,4.08-3.76l46,.19c1.55.45,3.54,3,3.54,4.75v8.09h6.04v-30.78h-6.04v7.7c0,2.63-2.55,4.72-4.78,4.95-14.16,1.48-30.38-1.14-44.76,0-1.4.07-4.08-2.3-4.08-3.76v-8.88h0ZM2441.19,1364.29h-41.9v19.73h41.9v-19.73ZM2393.61,1377.71h-6.39v30.78h6.39v-9.67c0-.68,2.68-3.71,3.72-3.36l46.96.31c1.52.37,2.94,3.11,2.94,4.63v8.09h6.04v-30.78h-6.39c.31,3.84,1.41,11.78-3.39,12.6l-46.15.04c-1.04.35-3.72-2.68-3.72-3.36v-9.27h0ZM2441.19,1401.78h-41.9v19.73h41.9v-19.73Z"/>
    <path class="cls-9" d="M2262.94,1489.39c-3.68.64-7.03-1.07-7.82-5.32v-180.38c.35-4.66,4.23-8.27,8.34-8.48l90.53.05c3.86.78,6.69,4.19,7.31,8.45l-.03,180.32c-.75,4.55-4.34,5.89-8.14,5.36-.15,2.28.18,8.59-.89,10.25-.65,1.01-1.43,1.11-2.46,1.21-2.78.28-10.54.41-13.13-.04-.87-.15-2.68-1.7-2.68-2.54v-8.88h-51.84v8.09c0,.43-1.42,2.73-2.11,2.78-4.34.16-9.29,1.16-13.6.47-1.02-.17-3.47-1.1-3.47-2.46v-8.88h0ZM2355.61,1483.08v-179.37c0-.16-1.72-2.12-2.29-1.8h-89.87c-.9-.47-2.64,1.55-2.64,2.19v178.97h94.81ZM2276.79,1494.52c-.21-1.64.53-3.88-.53-5.13h-7.63v5.13h8.17ZM2347.45,1489.39h-7.81v5.13h7.81v-5.13Z"/>
    <path class="cls-9" d="M2577.54,1489.39v8.48c0,1.34-2.23,2.47-3.36,2.58-2.79.28-10.52.41-13.13-.04-.8-.14-2.33-1.32-2.33-2.15v-8.88h-52.55v8.48c0,1.2-1.94,2.75-3.04,2.94-2.39.41-9.17.3-11.71.04-1.55-.16-4.07-1.37-4.07-3.37v-8.09c-4.45.66-7.84-.82-8.52-6.12v-178.79c.06-4.79,2.93-8.73,7.28-9.26l90.92-.02c4.4.13,7.94,3.54,8.34,8.48v179.97c-.54,4.5-3.99,6.39-7.83,5.72h0ZM2484.51,1483.08h93.56c.8,0,1.86-1.98,1.62-2.94l-.2-176.61-1.24-1.38-91.09-.23c-.9-.47-2.64,1.56-2.64,2.19v178.97h0ZM2500.49,1489.39h-7.28c-1.24,1.38-.15,3.48-.18,5.13h7.46v-5.13ZM2571.86,1489.39h-7.81v5.13h7.81v-5.13Z"/>
    <path class="cls-9" d="M2443.32,1449.53h13.32c4.85,0,10.88,6.97,10.82,12.44l-.29,128.7c-1.56,5.99-5.68,9.2-11.22,9.63-23.34,1.81-48.56-1.39-72.09-.02-5.32-.53-9.25-4.21-10.58-9.94l-.25-129.16c.25-5.34,6.11-11.65,10.83-11.65h13.32v-10.06c0-2.65,4.79-7.04,7.32-6.86,9.85.63,20.79-.99,30.51-.06,4.01.39,8.33,4.13,8.33,8.9v8.09h0ZM2437.64,1449.53v-8.09c0-1.11-1.65-2.09-2.64-2.19-9.4-1.02-20.3.82-29.85.02-.87-.23-2.66,1.43-2.66,2.18v8.09h35.15ZM2461.78,1571.87v-110.3c0-.15-1.06-2.23-1.26-2.54-1.29-1.97-3.15-2.91-5.31-3.18l-69.96-.02c-2.89-.26-6.91,3.32-6.91,6.53v109.51h83.44,0ZM2461.78,1577.79h-83.44v10.85c0,.15,1.08,2.28,1.26,2.55.99,1.42,2.54,2.11,4.05,2.6l72.28.18c1.81-.29,3.49-1.16,4.59-2.79.2-.29,1.26-2.4,1.26-2.54v-10.85h0Z"/>
    <path class="cls-9" d="M2470.66,1454.27c-1.75-1.98-3.25-4.43-5.61-5.6l-.26-145.14-1.24-1.38-86.65-.03-1.6,1.78-.16,144.27-5.68,6.51v-151.74c0-.2,1.13-3.22,1.35-3.63,1.3-2.45,4.45-4.07,6.98-4.08l85.23.02c2.68.37,5.23,1.84,6.59,4.52.18.36,1.05,2.62,1.05,2.78v151.74h0Z"/>
    <path class="cls-9" d="M2311.23,1533.99v9.47h43.67c-1.4-1.82-5.07-5.02-2.32-7.51,2.7-2.44,7.26,3.85,9.08,6.12,1.18,1.47,3.23,3.45,2.68,5.36-.21.73-8.36,9.95-8.97,10.16-1.85.63-3.68-.77-3.68-2.88s2.68-3.58,3.57-5.33h-46.34c-1,0-3.02-2.61-3.02-3.75v-11.25c-1.67,1.14-2.53,3.69-4.79,3.58-1.95-.09-3.01-2.02-2.6-4.08.15-.73,4.24-5.66,5.07-6.61,1.45-1.65,3.85-5.28,5.88-4.56.75.27,7.12,7.7,7.98,8.9,1.19,1.67,2.57,3.71.71,5.54-2.87,2.83-5.04-1.37-6.93-3.17h0Z"/>
    <path class="cls-9" d="M2534.64,1533.19v12.43c0,.74-2.28,2.96-3.02,2.96h-46.34c1.26,2.15,4.57,3.75,3.12,6.82-1,2.1-3.04,1.74-4.54.49-.78-.65-7.14-7.64-7.47-8.27-.73-1.4-.4-2.72.37-3.97.55-.88,7.52-8.62,8.06-8.8,3.03-1.01,4.83,1.86,3.25,4.79-.61,1.14-1.86,1.82-2.43,3.02h44.03v-9.47l-3.42,3.5c-2.29,1.5-4.8-.43-4.39-3.28.15-1.01,4.35-6.05,5.31-7.14,1.88-2.14,4.15-6.14,6.77-3.56,1.37,1.35,6.87,7.93,7.8,9.49s.81,3.24-.69,4.37c-2.96,2.22-4.24-1.87-6.42-3.38h0Z"/>
    <path class="cls-9" d="M2476.5,1565.98c-.69-1.16-.83-2.53-.17-3.79"/>
    <path class="cls-9" d="M2405.24,1332c5.02-.67,6.3,7.82,1.96,8.92-6.58,1.67-6.99-8.25-1.96-8.92Z"/>
    <path class="cls-9" d="M2402.96,1377.58c-3.62-3.84,1.36-10.47,5.39-6.98,4.32,3.76-1.23,11.39-5.39,6.98h0Z"/>
    <path class="cls-9" d="M2405.24,1406.98c5.81-.78,6.13,9.35.61,9.35-5.08,0-5.43-8.7-.61-9.35Z"/>
    <path class="cls-9" d="M2269.95,1308.35l76.27-.1c1.4.05,2.38,1.29,3.1,2.48l.28,163.1c.09,1.53-.75,2.7-1.89,3.43l-77.51.32c-1.38.09-2.43-.84-3.09-2.1l-.11-164.49c.59-1.31,1.6-2.4,2.94-2.65h0ZM2343.9,1314.96h-71.37v18.55h6.75v-9.67c0-.96,2.93-3.58,4.08-3.36l51.61.28c1.37.18,3.26,2.99,3.26,4.27v8.88h5.15l.53-.59v-18.35h0ZM2332.53,1326.8h-47.58v19.73h47.58v-19.73h0ZM2279.27,1340.22h-6.75v30.78h6.75v-9.27c0-1.21,2.71-3.97,4.08-3.76l51.33.19c1.55.45,3.54,3,3.54,4.75v8.09h5.68v-30.78h-5.68v7.7c0,1.55-1.83,4.22-3.25,4.67l-51.61.27c-1.37.22-4.08-2.55-4.08-3.76,0,0,0-8.88,0-8.88ZM2332.53,1364.29h-47.58v19.73h47.58v-19.73h0ZM2279.27,1377.71h-6.75v30.78h6.75v-9.27c0-1.14,2.68-4.16,4.08-3.75l51.67.19c1.51.43,3.19,2.69,3.19,4.35v8.48h5.68v-30.78h-5.68v8.09c0,1.45-1.79,4.05-3.19,4.35l-51.67.19c-1.45.26-4.08-2.38-4.08-3.75v-8.88h0ZM2332.53,1401.78h-47.58v19.73h47.58v-19.73h0ZM2279.27,1415.2h-6.75v30.78h6.75v-9.27c0-.11.87-1.69,1.07-1.97,1.27-1.8,2.82-2.02,4.78-2.19,15.58-1.28,32.57.99,48.31.02,1.69-.05,4.79,2.19,4.79,4.14v9.27h5.68v-30.78h-5.68v8.09c0,1.55-1.83,3.93-3.26,4.27l-51.61.28c-1.37.22-4.08-2.55-4.08-3.76v-8.88h0ZM2332.53,1439.27h-47.58v19.34h47.58v-19.34h0ZM2279.27,1452.3h-6.75v18.94h71.37v-18.94h-5.68v8.48c0,1.33-1.92,3.67-3.19,3.96l-51.68.19c-1.37.22-4.08-2.55-4.08-3.76,0,0,0-8.88,0-8.88Z"/>
    <path class="cls-9" d="M2493.65,1308.35l76.62-.1c1.4.05,2.38,1.29,3.1,2.48l.29,162.71c.01,1.32-.77,3.3-1.88,3.83l-77.87.32c-1.38.09-2.43-.84-3.09-2.1l-.11-164.49c.59-1.31,1.6-2.4,2.94-2.65h0ZM2567.95,1314.96h-71.37v18.94h5.86c1.32-1.71.15-4.59.15-6.51,0-3.25,1.08-6.09,4.14-6.88l50.4-.03c1.77-.13,4.44,2.23,4.44,4.14v8.88h6.39v-18.55h0ZM2555.88,1326.8h-47.23v19.73h47.23v-19.73ZM2502.97,1340.22h-6.39v30.78h6.39c.37-4.79-2.02-11.46,3.76-12.99l50.75-.04c1.63-.07,4.08,2.51,4.08,4.15v8.88h6.39v-30.78h-6.39v8.88c0,1.21-2.71,3.97-4.08,3.76l-50.76-.04c-5.6-1.59-3.42-7.86-3.75-12.6h0ZM2555.88,1364.29h-47.23v19.73h47.23v-19.73ZM2502.97,1377.71h-6.39v30.78h6.39v-9.67c0-1.18,2.43-3.56,3.72-3.36h50.8c1.43-.44,4.07,2.53,4.07,3.76v9.27h6.39v-30.78h-6.39v8.48c0,1.33-1.92,3.67-3.19,3.96l-51.32.19c-1.18.4-4.08-2.45-4.08-3.35v-9.27h0ZM2555.88,1401.78h-47.23v19.73h47.23v-19.73ZM2502.97,1415.2h-6.39v30.78h5.86l.53-.59v-9.08c0-1.47,2.95-4.01,4.44-3.75,15.81,1.16,33.42-1.55,49.01-.02,1.79.18,5.13,1.96,5.13,4.16v8.68l.53.59h5.86v-30.78h-6.39v8.48c0,1.33-1.92,3.67-3.19,3.96l-51.32.19c-1.18.4-4.08-2.45-4.08-3.35v-9.27h0ZM2555.88,1439.27h-47.23v19.34h47.23v-19.34ZM2502.97,1452.3h-6.39v18.94h71.37v-18.94h-6.39v8.88c0,.93-2.16,3.42-3.19,3.56l-51.68.19c-1.04.35-3.72-2.68-3.72-3.36v-9.27h0Z"/>
    <path class="cls-9" d="M2425.21,1505.57h17.22c.82,0,2.04,1.93,1.63,2.96l-32.2,51.45c-2.45,1.29-4.64-.21-4.04-3.31l6.39-30.59h-16.51c-.8,0-1.68-2.82-1.23-3.73l32.87-53.05c1.56-1.25,4.15.24,3.97,2.42l-8.1,33.84h0ZM2435.86,1511.49h-14.38c-.22,0-1.62-1.23-1.77-1.58-1.3-3.19,3.35-16.17,3.82-20.21l-.1-1.09-19.18,31.57h14.74c.59,0,2.22,1.9,1.88,2.85-1.5,6.33-3.17,12.61-4.64,18.94-.09.38-.6,1.18.1,1.09l19.53-31.57h0Z"/>
    <path class="cls-9" d="M2288.63,1333.25c4.21-4.47,9.63,3.3,5.39,6.98-4.01,3.48-9.07-3.07-5.39-6.98Z"/>
    <path class="cls-9" d="M2291.26,1369.52c6.67-.4,4.6,12.27-1.59,8.67-3.94-2.3-2.3-8.43,1.59-8.67Z"/>
    <path class="cls-9" d="M2288.63,1408.23c3.99-4.18,9.79,3.08,5.39,6.98-4.21,3.73-9.01-3.2-5.39-6.98Z"/>
    <path class="cls-9" d="M2290.18,1444.49c5.92-1.52,7.13,7.53,2.26,8.82-5.51,1.46-6.76-7.67-2.26-8.82Z"/>
    <path class="cls-9" d="M2514.92,1369.56c6.49-.25,4.94,11.57-1.37,8.82-3.94-1.72-2.94-8.65,1.37-8.82Z"/>
    <path class="cls-9" d="M2514.96,1407c4.21-.26,5.93,6.57,2.11,8.67-6,3.3-8.67-8.27-2.11-8.67Z"/>
    <path class="cls-9" d="M2514.97,1332.01c3.82-.25,6,6.37,2.1,8.67-6.22,3.68-8.59-8.24-2.1-8.67Z"/>
    <path class="cls-9" d="M2513.88,1444.49c6.77-1.74,6.91,9.74.67,8.96-4.55-.57-4.45-8-.67-8.96Z"/>
    <text class="cls-18" transform="translate(2224.43 1665.94)"><tspan x="0" y="0">Or s</tspan><tspan class="cls-15" x="71.56" y="0">t</tspan><tspan x="84.24" y="0">ores power in the </tspan><tspan x="7.15" y="48">BESS (Battery Energy </tspan><tspan x="48.22" y="96">S</tspan><tspan class="cls-15" x="71.95" y="96">t</tspan><tspan x="84.63" y="96">o</tspan><tspan class="cls-31" x="107.44" y="96">r</tspan><tspan x="120.2" y="96">age System) </tspan></text>
  </g>
  <g>
    <g>
      <ellipse class="cls-9" cx="2405.29" cy="339.54" rx="331.39" ry="330.54"/>
      <circle class="cls-10" cx="2405.33" cy="339.5" r="316.67"/>
    </g>
    <path class="cls-9" d="M2212.47,446.03c-1.46-.36-2.06-2.75-2.19-3.9-1.95-17.89,1.88-36.78-.62-54.51l.31-145.5,2.78-2.36c62.5-.53,125.1-.1,187.63-.21,44.12-.07,88.81-.04,132.82-.57,3.81-.05,19.1-.58,21.2,1.2l1.38,204.56-.58,1.08c-3.75.49-7.68.15-11.5.2-1.47.02-2.8.57-4.27.57-2.65-.01-6.18-1.1-9.2-.52-2.11-1.9-.45-4.42-.38-6.55,1.76-58.49-1.22-116.39,0-175.11l-1.4-4.32-5.09-.66-285.71.42c-.46.17-2.01,1.24-2.01,1.44v183.97l-.93.79h-22.25Z"/>
    <path class="cls-9" d="M2512.53,142.03c-.94.77,3.05,5.53,3.63,6.61,7.04,13.2,9.13,27.53,10.57,41.87l1.82,33.58c1.44.52,4.75-.2,5.61,1.14s1.16,6.86-.61,7.74c-.9.45-18.58.51-20.74.28-.51-.05-1.1.02-1.56-.25l-.49-.63c.03-2.34-1.19-7.07,2.21-7.94,1.09-.28,4.86.06,5.14-.99l-.62-26.67c-.55-15.27-6.01-54.02-25.56-60.09-16.16-5.02-24.42,7.12-30.2,17.56-3.82,6.9-7.26,14.86-8.54,22.37h15.76c1.43,0,3.55,1.7,3.88,3,.49,1.89.41,12.59-.33,14.17-.41.87-2.14,2.24-3.21,2.52l-142.46.2c-2.14-.4-3.79-1.44-4.09-3.35-.36-2.36-.36-10.26.07-12.57.22-1.17,2.07-3.44,3.36-3.44h14.83c1.32-1.21-.03-4.25-.49-5.88-2.99-10.61-12.64-31.13-25.8-34.73-16.72-4.58-25.15,9.16-27.1,21.02-3.99,24.28,15.48,44.71,22.72,66.97.92,1.1,6.38-.9,8.14,1.59,1.3,1.84.27,4.96.58,7.11h-25.34c-.04-4.67-1.38-9.3,6.18-8.39.04-.75.06-1.5-.14-2.24-2.46-9.29-12.81-22.82-17.01-32.75-5.59-13.23-7.79-27.34-2.94-41.02.82-2.32,2.68-4.3,2.79-6.81h-26.27c-3.57,0-7.99,5.21-8.29,8.17l-.09,58.1c5.57.5,4.85,3.19,6.17,6.89,2,.12,6.84.15,6.84,2.58v18.08c-6.83.98-13.78-.07-20.73-.03-4.77.03-10.15,1.51-14.98-.09l.28-18.63c.73-1.43,4.65-1.21,6.32-1.75.22-2.29-.04-5.22,2.71-6.35,1.33-.55,3.42-.09,3.55-1.71l.14-60.16c1.19-6.49,10.44-13.31,18.08-14.02,4.21-.39,28.19-.55,31.25.24.8.2,1.83,1.26,2.14,1.26.41,0,3.46-3,4.34-3.57,11.05-7.21,23.94-3.9,34.56,2.11l49.46-.04c12.69-8.6,27.64-8.26,40.15.04l46.97-.06c12.36-8.05,28.08-8.72,40.22.02,18.98-1.31,41.36,1.79,59.94.01,10.88-1.04,4.92-16.22,6.63-22.68,1.01-3.86,8.57-3.84,9.61,1.06.7,3.34.62,15.71,0,19.14-.72,3.95-3.76,7.18-7.7,9.19-.82.41-4.94,2.2-5.44,2.2h-55.93v-.03ZM2426.01,176.62c-.4-14.62-10.14-46.39-34.13-40.22-15.15,3.9-22.34,28.39-23.35,40.21h57.48ZM2337,142.03c3.23,5.65,6.82,11.07,9.28,17.02,2.46,5.95,3.74,11.92,5.51,17.86l6.44.16.93-.79c.49-9.76,3.51-18.99,7.83-27.95.59-1.22,4.01-6.1,3.37-6.83-.48-.12-.74.52-.92.52h-32.45ZM2456.59,142.03c-9.65.95-21.33-.71-31.21,0,6.38,10.75,10.2,22.48,10.51,34.6l7.04.03c2.64-9.73,5.96-18.92,11.06-27.92.66-1.17,4.77-6.61,4.15-7.22-.7-.2-1.28.5-1.54.52h0Z"/>
    <path class="cls-9" d="M2439.85,309.96c31.09-34.32,74.48-2.55,77.61,32.03,2.39,26.44-12.07,64.98-50.99,61.07-3.76-.38-7.32-5.36-11.48-7.03-3.03-1.22-8.26-1.34-10.18-2.37-.67-.36-7.1-7.37-7.95-8.45-16.03-20.31-14.54-55.87,2.99-75.22h.01ZM2490.06,316.75c-9.38-8.15-25.17-10.78-36.45-3.76-28.08,17.45-22.91,81.12,19.6,76.9,33.95-3.36,38.59-54.25,16.85-73.14h0Z"/>
    <path class="cls-9" d="M2244.3,307.92c.07-.67.91-4.58,1.19-4.75l8.09.04c.51-.21,3.21-4.82,3.43-5.5,1.06-3.24-3.96-4.8-4.42-7.32-.12-.67,9.25-7.32,9.97-7.39,2.78-.24,4,4.55,6.25,5.74.85.24,5.53-1.18,6.56-1.64,3.94-1.75-1.03-8.34,5-8.22,2.28.05,6.44.28,8.67.53.98.1,1.95.38,2.85.73,1.66,5.67-1.79,8.06,6.37,10.36,3.33.94,4.25-2.7,6.27-2.75,2.57-.06,10.67,7.74,8.99,10.63-1.54,1.2-7.27,3.57-7.39,5.31-.04.59,1.33,4.81,1.77,5.3,1.09,1.23,3.92,1.07,4.98,2.59v9.96c0,.08-.64,1.28-1.02,1.35l-4.76-1.04c-5.38,4.35.92,6.06,3.34,9.65-1.32,1.5-7.36,6.73-9.48,6.47-3.42-.41-5.6-7.22-10.93-3.84-2.45,1.56-.3,5.88-2.03,7.97-1.87,1.58-11.14.19-13.99.06-1.54-2.54,1.67-6.74-1.35-8.55-.6-.36-5.21-1.85-5.75-1.76-2.04.88-4.57,4.84-6.85,4.64l-10.2-7.62c-.25-2.59,6.93-3.21,5.38-8.27s-6.17-4.14-10.97-4.58c.2-2.64-.27-5.51,0-8.12h.01ZM2278.13,298.35c-14.31,2.06-15.27,23.23,0,25.43,24.01,3.46,23.79-28.85,0-25.43Z"/>
    <path class="cls-9" d="M2359.87,264.67h74.47c1.71,0,.45,3.09.17,3.81-3.21,8-10.27,19.38-14.86,27.22-.83,1.43-4.59,7.96-5.35,8.56-1.08.85-1.49.68-2.78.79-9.77.82-20.77-.78-30.64-.81l-20.52-36.57-.48-3h0Z"/>
    <path class="cls-9" d="M2241.34,457.97c-.37-1.73-1.83-5.48.49-6.44,23.1-.61,46.38-.09,69.56-.24,69.76-.44,139.66-.07,209.52-.05l1.87.51-.31,6.62-277.25.25-3.86-.67h0Z"/>
    <path class="cls-9" d="M2416.73,204.4l2.22,29.64c-.07.38-1.14,1.28-1.29,1.28h-39.55c-.17,0-1.44-.54-1.56-.89l1.85-29.15c.11-.35,1.4-.89,1.56-.89h36.77Z"/>
    <path class="cls-9" d="M2328.97,268.87v56.87c0,5.15,4.65,13.02,10.07,15.57,5.7,2.68,8.69,1.44,14.34,1.99,5.61.54,13.63,9.3,6.84,9.99-18.36,1.85-36.33-4.38-40.36-20.87-2.35-9.62-.81-24.38-.75-34.44.05-8.24-1.14-19.5-.06-27.3.11-.77.07-1.35.96-1.81h8.96,0Z"/>
    <path class="cls-9" d="M2443.17,397.43c27.49-2.98,29.61,35.74,2.31,36.57-25.39.77-27.89-33.8-2.31-36.57ZM2453.19,407.24l-12.2,4.84-5.1,11.4c.61.5,12-3.53,13.62-4.43l3.68-11.81h0Z"/>
    <path class="cls-9" d="M2380.73,335.56c1.21.88,1.19,12.5,0,13.37-2.73,1.99-13.41-1.27-16.48-2.79-20.54-10.21-12.68-38.74-14.3-55.54-.37-3.61,11.56-2.96,12.26-.92.93,10.4-.81,21.58.1,31.89.93,10.57,6.98,12.51,18.41,13.99h0Z"/>
    <path class="cls-9" d="M2410.55,383.66c.7,2.75,1.12,8.05-2.91,8.8h-36.82l-12.62-10.26c-11.31-1.04-24.67,1.01-35.73-.1-6.11-.61-6.67-7.61-1.19-8.37,12.76.82,27.68-1.19,40.17-.06,6.04.55,8.58,7.62,13.56,9.99h35.54,0Z"/>
    <path class="cls-9" d="M2385.83,397.28h21.94l.93.79v18.87c0,2.86-3.68,7.21-6.79,8.39-8.07,3.06-15.65-2.04-16.63-8.97-.22-1.54-.58-19.07.55-19.07h0Z"/>
    <path class="cls-9" d="M2522.41,427.16v8.91h-65.51c-.38-2.15,2.68-2.66,4.33-3.93,2.05-1.57,3.84-3.4,5.87-4.98h55.31Z"/>
    <polygon class="cls-9" points="2407.46 324.43 2407.46 349.06 2387.37 349.06 2386.45 348.28 2386.45 325.21 2387.37 324.43 2407.46 324.43"/>
    <path class="cls-9" d="M2377.18,357.19c.33-.98,2.82-1.73,4-1.84,5.51-.56,28.91-.71,33.86.13,5.43.92,5.16,7.69,2.61,10.89h-39.55l-.93-.79v-8.39h0Z"/>
    <polygon class="cls-9" points="2522.41 398.86 2522.41 422.44 2508.82 422.44 2502.64 401.15 2504.18 398.86 2522.41 398.86"/>
    <path class="cls-9" d="M2502.02,266.77v9.43c-.61-.17-1.34.52-1.55.52h-34.61l-.93-.79v-9.17h37.08Z"/>
    <path class="cls-9" d="M2356.78,204.92c1.64,9.62,4.95,19.13,5.56,28.83-1.95-.17-6.96.56-8.08-.89l-11.69-28.47c.67-.2,1.35.52,1.54.52h12.67,0Z"/>
    <path class="cls-9" d="M2451.96,204.4c1.27,1.05-9.83,25.28-11.1,28.59-.7.4-5.98.39-7.15.24-.93-.11-.99.31-.91-.78,1.92-7.34,2.68-14.98,4.62-22.3.28-1.07,1.21-5.74,2.5-5.74h12.05Z"/>
    <path class="cls-9" d="M2382.12,310.54c.95-.93,2-1.18,3.39-1.32,5.73-.57,17.58-.37,23.52-.02,1.04.06,2.04.17,3.01.49.64.38.88,8.16.36,9.49h-29.36l-.93-.79v-7.86h0Z"/>
    <path class="cls-9" d="M2346.89,409.08c.06-.17.96-.93,1.25-1.04,1.09-.44,11.69-.51,13.26-.26.68.11,2.18.91,2.18,1.29v14.15c0,.15-.96,1.43-1.24,1.57h-14.21c-.28-.14-1.24-1.43-1.24-1.57,0-3.01-.7-12.02,0-14.15h0Z"/>
    <path class="cls-9" d="M2493.37,292.98c-.61-.17-1.34.52-1.55.52h-16.69c-.2,0-.94-.69-1.55-.52v-11.79l.93-.79h17.92l.93.79v11.79Z"/>
    <path class="cls-9" d="M2408.7,440.26h-24.41c-2.05-2.62-1.3-7.45,2.21-9.13,2.52-1.21,13.63-1.11,16.97-.85,6.66.51,6.61,5.5,5.22,9.98h0Z"/>
    <path class="cls-9" d="M2413.02,371.08c1.73,4.29-.67,6.94-5.84,7.36-3.71.3-18.86.41-21.87-.37-3.37-.88-5.24-4.61-2.88-6.99h30.59Z"/>
    <path class="cls-9" d="M2343.1,419.74c-1.03.46-2.14.55-3.29.62-3.6.22-16.96.4-19.44-.85-3.52-1.79-1.94-6.99,1.51-7.54,1.67-.27,19.17-.25,20.3.06,1.56.41,1.2,7.34.93,7.72h0Z"/>
    <path class="cls-9" d="M2379.56,426.04c-3.65.07-7.76,1.11-8.53-2.84-.42-2.15-.43-12.52.1-14.53.88-3.38,8.52-4.06,9.14-1.16s.32,12.41.02,15.75c-.08.97-.2,1.92-.74,2.79h0Z"/>
    <path class="cls-9" d="M2337.66,323.87l-.04-25.39c.07-1.44,1.98-1.55,3.39-1.32,3.16.51,1.53,6.8,1.53,8.64-.01,4.51.88,12.85.02,16.79-.43,1.99-3.05,1.25-4.91,1.28h0Z"/>
    <path class="cls-9" d="M2414.26,406.98c.54-.75,1.23-.72,2.13-.81.98-.1,4.07-.49,4.07.81,0,1.96-1.09,4.04-1.29,6.27-.38,4.51.48,8.48,1.27,12.86h-6.18v-19.13h0Z"/>
    <path class="cls-9" d="M2431.57,204.4l-1.98,16.93c-.62,1.87-3.64,1.42-5.44,1.42l1.95-17.49.92-.79,4.55-.07h0Z"/>
    <path class="cls-9" d="M2364.2,204.4l4.55.07.93.79,1.96,16.18c-.14,1.88-4.43,2.07-5.3-.24-1.77-4.62-.65-11.87-2.13-16.8h0Z"/>
    <path class="cls-9" d="M2522.41,288.26c.85,1.13.9,5.24-.93,5.24h-16.07c-1.46-1.13-1.46-4.11,0-5.24h17Z"/>
    <path class="cls-9" d="M2403.75,442.88c.68,1.79,1.11,3.51-.61,4.98l-13.24-.21c-.77-.46-.7-4.23.57-4.77h13.29,0Z"/>
    <path class="cls-9" d="M2465.39,333.99c13.81-2.17,16.65,15.23,13.27,23.31-3.59,8.57-14.78,10.92-20.15,2.2-3.95-6.41-3.52-23.87,6.88-25.5h0Z"/>
    <path class="cls-9" d="M2465.02,329.6c-.69-2.39-5.7-13.05-4.76-14.6.8-1.31,6.28-2.05,8.05-2.12,2.19-.09,9.25.28,9.64,2.38.16.86-4.25,12.99-4.94,13.65-1.46,1.4-5.82.61-7.98.68h0Z"/>
    <path class="cls-9" d="M2471.63,369.59c.77.44,5.69,14.08,4.96,15.04-2.63,1.63-14.93,1.69-15.9-.81-1.05-2.73,3.53-10.91,4.28-14.02.32-1.36,6.15-.49,6.64-.21h0Z"/>
    <path class="cls-9" d="M2486.38,319.87c1.35,1.01,7.91,9.17,7.52,10.47-.25.84-10.51,9.47-11.65,8.76-.25-3.11-4.7-4.46-4.33-7.55.09-.75,5.15-10.28,5.91-11.28.31-.4.61-.81,1.17-.97.49.13.98.29,1.37.58h0Z"/>
    <path class="cls-9" d="M2482.54,360.08c1.79,1.6,11.29,6.61,11.46,8.12.15,1.25-7.32,11.58-8.38,11.77-.82.15-1.09-.39-1.45-.84-.64-3.13-6.03-9.38-6.25-12.03-.14-1.73,3.66-5.18,4.62-7.02h0Z"/>
    <path class="cls-9" d="M2453.16,319.73l6.85,10.76-5.96,7.53c-.9.13-8.78-7.42-8.84-8.61-.07-1.37,4.82-8.83,6.12-9.47.59-.28,1.19-.35,1.84-.23h0Z"/>
    <path class="cls-9" d="M2454.4,360.61l4.83,6.96c-.07.69-4.77,9.13-5.51,9.97-.4.46-.61,1.03-1.44.85l-7.73-10.23c.02-.62,6.67-6.53,7.69-7.09.72-.4,1.25-.69,2.16-.48h0Z"/>
    <path class="cls-9" d="M2499.55,352.99c-.06.28-.63.81-.7,1.24-.74.38-11.38-1.31-12.73-1.87-2-.82-2.32-6.47.31-7.37.68-.23,10.53-2.12,11.1-2.11.74,0,2.03.91,2.03,1.2,0,2.54.45,6.64,0,8.91h0Z"/>
    <path class="cls-9" d="M2440.22,343.56c.15-.42.9-.73,1.49-.77.66-.04,9.17,2,9.64,2.33.96.68.89,7.29.24,7.67-1.44-.09-11.38,5.14-11.38,2.3v-11.53h0Z"/>
    <text class="cls-18" transform="translate(2232.24 540.67)"><tspan class="cls-14" x="0" y="0">P</tspan><tspan x="24.98" y="0">owers Compressed </tspan><tspan x="94.86" y="48">Air Engine</tspan></text>
    <path class="cls-9" d="M2626.1,440.91c3.26,7.31-2.95,8.16-10.02,7.18-4.26-.59-4.75-6.5-2.84-7.59,1.01-.58,11.84-.45,12.86.41h0Z"/>
    <path class="cls-9" d="M2562.89,288.26h35.23c.66,0,4.77,1.06,5.85,1.33,20.29,5.13,34.6,21.35,40.51,37.98,9.62,27.1,1.26,63.04-29.7,77.57-.57.07-.84-.23-1.21-.52-.76-.6-4.75-7.65-4.63-8.61,20.31-26.03,22.84-64.99-.64-90.18-4.13-4.43-15.02-12.34-21.92-12.34h-23.49c-1.55-.57-1.19-5.24,0-5.24h0Z"/>
    <path class="cls-9" d="M2563.2,435.55v-7.6l2.13-.81,67.35.06c4.21.34,4.31,6.58,2.52,8.87h-70.46c-.2,0-.94-.69-1.55-.52Z"/>
    <path class="cls-9" d="M2564.13,352.21c-2.63-.4-2.56-3.98-1.46-5.69,2.37.29,4.89-.64,7.03-.64,1.77,0,3.28.58,4.91.59,14.94.08,29.89-.11,44.83-.02v5.76h-55.31Z"/>
    <path class="cls-9" d="M2617.28,361.64c1.58.41,1.16,4.78-.3,5.51l-52.85.26c-2.5-.34-1.45-3.51-1.45-5.15.44-.08,1.22-.61,1.45-.61h53.15Z"/>
    <path class="cls-9" d="M2617.59,337.01h-55c-.48-1.8-1.53-4.29.31-5.77h53.15c1.74,1.55,1.61,3.8,1.55,5.77Z"/>
    <path class="cls-9" d="M2612.03,322.33h-48.52c-2.07,0-2.07-5.77,0-5.77h45.73c1.76,1.41,2.81,3.77,2.78,5.77Z"/>
    <path class="cls-9" d="M2598.12,422.44l-7.57-14.94c.19-2.2,12.35-1.23,14.67-1.03.77.41,1.24,1.04,1.76,1.66,1.54,1.82,6.69,9.91,7.54,11.96.23.56,1.02,2.37-.33,2.37h-16.07Z"/>
    <path class="cls-9" d="M2613.26,376.32c-.32,4-2.32,5.74-7.11,5.76-1.17,0-2.37-.54-3.68-.55-12.95-.02-25.91.05-38.86.05-1.89-1.67-1.43-5.26,1.75-5.26h47.9Z"/>
    <path class="cls-9" d="M2562.89,301.36h31.52c.96,0,6.38,3.9,6.8,4.72l-.62,1.05h-37.7l-.83-.87c-.17-.66-.14-1.34-.14-2.01,0-1.07-.2-2.22.96-2.88Z"/>
    <path class="cls-9" d="M2561.35,458.61l-.35-6.85c3.5-1.91,7.13-.51,10.52-.47,2.92.04,12.7-.51,14.55.24,3.21,1.29,1.51,7.08-.31,7.08h-24.41Z"/>
    <polygon class="cls-9" points="2600.9 392.04 2599.12 395.91 2564.75 396.23 2563.29 395.38 2563.2 392.04 2600.9 392.04"/>
    <path class="cls-9" d="M2522.42,301.88v5.24c-.78.73-5.37-3.96-6.18-4.46-.26-1.18.61-.72,1.53-.78,1.53-.09,3.11.06,4.65,0h0Z"/>
  </g>
  <g>
    <ellipse class="cls-9" cx="331.43" cy="330.54" rx="331.39" ry="330.54"/>
    <circle class="cls-10" cx="331.47" cy="330.5" r="316.67"/>
    <path class="cls-9" d="M509.07,237.71c-.93,5.11-8.81,4.79-12.19,4.4-7.35-.83-5.86-6.54-5.93-13.5-6.48,8.86-17.04,4.21-25.68,5.48l-.65.57c-6.27,22.93-24.51,39.73-44.7,41.79l-242.36-.04c-11.32-2.1-19.86-12.81-20.69-26.57-1.4-22.85,1.12-47.7,0-70.77,1.23-13.67,10.68-24.95,22.36-25.92l241.16.11c20.54,2.67,37.63,18.99,44.5,42.03,8.69,1.72,19.44-3.17,26.06,5.69,1.2-6.92-2.43-11.08-3.96-17.16-1.57-6.2-3.07-21.91.56-26.97,5.39-7.49,19.34-7.1,24.95-.02,4.14,5.23,1.97,22.46-.02,29-1.87,6.15-4.71,9.66-3.4,17.16,11.58-13.17,29.39-3.82,27.13,15.77-1.19,10.24-12.66,17.77-20.54,13.1l-6.58-4.62c-.37,3.05.51,7.63,0,10.43h0ZM498.75,160.78c-6.24.91-5.91,6.57-5.46,12.88.21,2.91,2.3,14.02,4.73,14.57,5.71,1.28,6.5-2.7,7.72-8.33,1.82-8.41,3.45-20.64-7-19.11h0ZM461.79,223.91c6.08-1.28,15.1.95,21.52,0l.85-1.01v-16.16l-.85-1.01h-22.65c-2.17,0-4.22-9.72-5.11-12.1-6.83-18.1-21.35-29.39-37.93-30.99h-236.67c-8.34.83-14.04,6.26-16.01,15.98,1.02,22.7-1.83,48.16-.13,70.54.71,9.33,6.49,16.92,14.44,17.85h239.5c16.98-1.88,30.24-13.63,37.2-31.86,1.45-3.79,1.62-10.34,5.84-11.23v-.02ZM501.14,197.64h-2.26v5.4h2.26s0-5.4,0-5.4ZM518.55,206.56c-6.77,2.08-6.18,15.93,1.71,17.21,10.92,1.78,11.14-21.16-1.71-17.21ZM506.24,212.46h-14.16v5.39h14.16v-5.39ZM501.14,226.6h-2.26v6.07h2.26v-6.07Z"/>
    <path class="cls-9" d="M509.07,376.45c-.87,4.57-10.25,4.15-13.32,3.72-6-.84-4.78-8.12-4.81-13.48-.89.16-.81,1.45-1.71,2.33-6.01,5.76-16.69,1.89-23.96,3.15l-.65.57c-6.27,22.93-24.51,39.73-44.7,41.79l-242.36-.04c-11.32-2.1-19.86-12.81-20.69-26.57-1.4-22.85,1.12-47.7,0-70.77,1.48-14.29,11.37-25.2,23.5-25.93l238.4.04c21.39,2.16,39.45,18.79,46.25,42.98,8.57,1.54,19.44-3.54,25.95,4.83,1.2-6.92-2.43-11.08-3.96-17.16-1.8-7.11-2.45-16.61-.74-23.8,1.12-4.7,9.1-8.79,12.95-8.9,4.18-.12,13.48,3.6,14.72,8.75,1.9,7.9.83,18.82-1.58,26.47-1.86,5.94-4.57,9.26-3.25,16.66,11.6-13.18,29.39-3.79,27.13,15.77-1.19,10.24-12.66,17.77-20.54,13.1l-6.58-4.62c-.41,3.2.56,8.19,0,11.12h-.02ZM498.17,298.83c-7.23,1.38-5.18,13.96-3.65,20.19,1.32,5.39,2.14,8.46,7.48,7.26,2.45-.55,4.58-10.98,4.8-13.82.64-8.32.17-15.32-8.63-13.63h0ZM484.15,360.96v-16.16l-.85-1.01h-22.65c-2.17,0-4.22-9.72-5.11-12.1-6.83-18.1-21.35-29.39-37.93-30.99-80.33.55-160.83-1.14-241.05.85-6.34,2.13-10.77,8.58-11.77,16.31,1.25,22.38-1.67,47.3.02,69.36.73,9.55,6.77,17.27,14.98,17.88l238.97-.04c17.25-1.93,30.37-13.81,37.37-32.33.98-2.6,1.51-8,3.47-9.34,3.47-2.38,17.58.37,22.57-.76.66-.15,1.84-1,1.99-1.67h-.02ZM501.14,335.7h-2.26v5.4h2.26v-5.4ZM526.43,346.71c-6-7.14-16.72,2.27-11.14,11.57,6.16,10.25,18.42-2.9,11.14-11.57ZM506.24,350.52h-14.16v5.39h14.16v-5.39ZM501.14,364.66h-2.26v6.07h2.26v-6.07Z"/>
    <path class="cls-9" d="M349.22,246.94l59.35-.15c5.69.78,5.19,8.76.58,9.47l-58.93-.02c-4.68-.47-4.93-6.99-1-9.3h0Z"/>
    <path class="cls-9" d="M437.56,225.4c2.93-.8,5.34.44,5.32,4.23-.02,7.04-15.06,23.15-20.88,23.78-3.3.36-5.26-4.66-3.24-7.95,1.03-1.66,7.14-4.9,9.34-7.08,1.28-1.27,3.16-3.56,4.19-5.12,1.52-2.27,3.06-7.27,5.26-7.88h0Z"/>
    <path class="cls-9" d="M349.79,385.02l58.78-.15c5.69.78,5.19,8.76.58,9.47l-60.89-.39c-3.14-2.67-2.08-7.67,1.53-8.93h0Z"/>
    <path class="cls-9" d="M436.18,364.19c1.94-1.89,6.11-1.16,6.63,2.19.79,5.01-6.45,14.3-9.61,17.49-2.2,2.21-9.44,8.18-12.04,7.63-3.1-.66-4.23-4.95-2.39-7.96.79-1.3,6.7-4.39,8.77-6.4,1.4-1.36,3.95-4.4,5.07-6.09s2.76-6.07,3.57-6.86h0Z"/>
    <text class="cls-18" transform="translate(164.76 508.99)"><tspan x="0" y="0">Compressed air as </tspan><tspan x="67.87" y="48">fuel sou</tspan><tspan class="cls-22" x="210.1" y="48">r</tspan><tspan x="223.26" y="48">ce</tspan></text>
  </g>
  <g class="cls-32">
    <g class="cls-19">
      <path class="cls-23" d="M978.4,1539.11l41.24,9.29-9.72,43.14-41.24-9.29,9.72-43.14Z"/>
    </g>
  </g>
  <g class="cls-30">
    <g class="cls-25">
      <path class="cls-23" d="M1685.04,1543.21l41.32-9.03,9.45,43.2-41.32,9.03-9.45-43.2Z"/>
    </g>
  </g>
  <g>
    <g>
      <ellipse class="cls-9" cx="331.39" cy="1532.18" rx="331.39" ry="330.54"/>
      <circle class="cls-10" cx="331.43" cy="1532.14" r="316.67"/>
    </g>
    <text class="cls-18" transform="translate(166.86 1713.25)"><tspan x="0" y="0">P</tspan><tspan class="cls-15" x="25.23" y="0">r</tspan><tspan x="38.38" y="0">oduces electricity </tspan><tspan class="cls-15" x="27.73" y="48">t</tspan><tspan x="40.41" y="48">o directly power </tspan><tspan x="73.93" y="96">equiptment</tspan></text>
    <g>
      <path class="cls-5" d="M422.56,1543.36l-77.7-141.63c-.26-1.04,1.78-3.65,2.41-4.78.45-.81.64-1.78,1.09-2.58.29-.51-.03-.79,1.02-.59,1.08,3.68,3.49,6.78,5.32,10.1,22.67,41.15,45.07,82.53,67.67,123.78,4.58,8.37,9.7,16.58,14.07,25.05.46.89,2.59,4.45.15,4.45h-176.93c1.35-4.87,4.81-9.26,7.13-13.81h155.77Z"/>
      <path class="cls-5" d="M349.39,1382.27v.46l-95.94,173.98c-2.53.71-6.78,1.18-8.72-.96-2.86-3.14-2.56-6.44-.9-10.05,2.36-5.11,6.25-10.78,9-15.85,25.68-47.15,51.37-94.26,77.48-141.12,1.99-3.57,3.83-8.09,5.99-11.5s8.13-3.27,10.53,0c1.03,1.4,1.72,3.62,2.56,5.04Z"/>
      <path class="cls-12" d="M302,1356.5c-.35-4.54-.07-8.27,5.08-9l-.04-98.02c.44-5.71,3.47-8.06,8.99-8.5,14.36.83,29.96-1.12,44.18,0,3.74.29,6.75,1.5,8.16,5.19.15.38.81,2.72.81,2.87v37.05c6.67-.81,10.58,2.91,11.06,9.42.8,10.68-.71,22.28.07,33.06,1.12,3.79,5.31,4.43,6.91.65l.37-54.42c-.15-1.32-1.7-1.17-2.75-1.85-1.28-.83-4.16-4.55-4.16-5.97v-8.05h3.68v-8.51c0-1.53,3.53-1.38,4.14.46v8.05h2.76v-7.59c0-1.07,2.05-2.82,3.49-1.64.22.18,1.12,1.53,1.12,1.64v7.59h3.22v8.05c0,1.42-2.88,5.14-4.16,5.97-1.05.68-2.6.53-2.75,1.85v52.48c-.52,5.57-3.98,9.29-9.85,8.48-5.03-.7-6.4-5.5-6.73-9.84-.79-10.53.64-22.05.01-32.69-1-2.67-3.81-3.25-6.44-3v57.53c4.2-.34,6.38,5.71,4.37,8.74h-71.56ZM365.04,1347.75v-98.26c0-.18-1.17-3.02-1.38-3.22-1.2-.73-2.5-1.05-3.89-1.17-13.99-1.16-29.58.91-43.74.01-.93.1-2.76.57-3.44,1.17-.25.22-1.39,2.16-1.39,2.29v99.18h53.84Z"/>
      <path class="cls-24" d="M517.21,1545.82c4.28,2.73,8.93,4.85,12.56,8.82,9.98,10.92,13.53,26.92,8.3,40.96-3.05,8.2-9.03,13.33-12.52,21.08-1.47,3.28-1.9,7.13-4.46,9.81,1.54,2.67,2.38,4.92,1.68,8.12-.19.87-1.12,1.76-1.19,2.47s1.09,2.46,1.25,3.64c.18,1.32.2,3.47-.31,4.68-.68,1.6-4.26,4.42-6.08,4.51-2.63,4.91-5.14,5.76-9.8,7.6-.41.16-.31.81-.64.89-.61.14-3.84.14-4.45,0-.33-.08-.23-.73-.64-.89-3.26-1.29-5.27-1.59-7.68-4.67-.54-.69-1.58-2.94-1.75-3.08-.44-.36-1.75-.28-2.51-.72-.27-.16-2.62-2.47-2.9-2.83-1.76-2.3-1.73-4.55-.79-7.23.23-.65,1.15-1.53,1.12-1.98-.01-.18-1.14-1.72-1.39-2.62-.89-3.27.43-5.09,1.47-7.87-2.32-3.1-2.86-6.89-4.46-10.31-3.3-7.07-9.01-12.2-11.94-19.35-7.56-18.48.1-39.6,17.23-49.29,7.25-4.1,22.43-6.55,29.92-1.76ZM496.19,1624.82v-26c-.9-1.18-2.52-.53-3.88-.72-7.06-1.01-7.29-12.01-.76-13.57,5.86-1.4,9.57,3.14,8.84,8.71.47,1.46,5.45.47,6.84.75-.02-2.02-.21-3.73.58-5.64,2.58-6.2,12.04-5.13,13.12,1.37.98,5.87-3.51,9.31-9.09,8.41v27.15c7.43.62,7.53-5.88,9.89-11.05,3.45-7.52,9.66-13.03,12.33-20.81,8.53-24.86-12.44-51.04-38.89-43.95-19.59,5.25-29.06,29.91-19.94,47.75,2.33,4.56,6.25,8.22,8.62,12.55s3.76,9.15,5.89,13.44c1.62,2.16,4.08,1.57,6.45,1.61ZM496.19,1593.98c-.03-1.6.31-3.23-.7-4.59-1.96-2.64-6.02.49-3.66,3.66,1.1,1.48,2.72.83,4.36.93ZM511.83,1593.98c3.82.48,5.81-.98,4.15-4.84l-2.05-.68-1.88.91-.22,4.61ZM507.23,1598.12h-6.9v26.46c1.72,1.43,4.73.38,6.9.69v-27.15ZM516.79,1629.54l-25.81-.11c-2.5,2.06-2.49,5.14,1.28,5.53,7.64.8,16.61-.61,24.4-.02,3.11-1.43,2.14-3.46.13-5.4ZM490.52,1640.09c-1.59.47-1.88,3.39-.2,4.17,1.91.89,9.79.24,12.56.32,4.21.13,8.59.93,12.87.49,3.46-.36,3.98-3.79.9-5.07l-26.14.08ZM510.91,1649.67h-14.27c2.43,3.65,7.06,4.65,11.04,2.99.6-.25,3.99-2.28,3.22-2.99Z"/>
      <path class="cls-16" d="M158.88,1570.28c-.16.58-2.83,1.29-3.58,1.48-4.54,1.15-6.77-.62-11.28-.42l-2.91-3.08c-3.93,2.23-9.21,1.78-10.35-3.22l-4.91-.18-3.61-4.43c-4.65.07-12.22-1-13.53-6.26,7.09-.7,14.32.12,21.42-.21,3.54-.17,8.87-.65,12.28-1.53,2.9-.75,7.44-3.56,10.36-2.29,2.56,1.11,2.25,6.63,6.1,5.63v14.5Z"/>
      <path class="cls-16" d="M215.48,1554.4c.24,1.95-1.86,3.37-3.36,4.23-3.07,1.75-6.68,2.1-10.15,2.28-.84.26-.95,1.62-1.45,2.23-2.06,2.51-3.9,2.45-7.06,2.37-1.27,5.07-6.84,5.03-10.84,3.13l-2.42,3.16c-1.6.34-3.38-.14-4.95.11-.98.15-1.65.88-2.78.94s-6.79-1.31-7.07-2.16l-.06-14.44,2.31-.22c1.6-1.62,1.74-4.8,4.11-5.55,3.32-1.05,7.04,1.47,10.15,2.33,4.93,1.36,9.53.87,14.48,1.63l19.12-.02Z"/>
      <path class="cls-24" d="M164.41,1586.62c1.2-.16,2.57.12,3.86-.05,3.63-.48,9.51-1.94,9.44-6.36l-1.58-.46c-1.8.04-2.72,2.79-5.51,2.28l-.24-1.4-2.11,1.38-1.8-.92c-2.15-9.21,15.28-8.76,16.7-1.97.74,3.54-.8,7.38-3.61,9.54-2.57,1.98-9.11,4.82-12.22,5.27-2.4.35-10.35.01-11.15,2.66-.9,2.97,2.02,3.9,2.58,6.38-3.56,2.53-7.24,4.9-9.8-.24-3.13-6.29,1.76-13.29,8.03-14.99,2.1-.57,4.88-.85,6.93-1.13.15-.02.31.02.46,0ZM169.01,1577.42h-1.38c-.19,1.34.08,1.96,1.15.92l.23-.92Z"/>
      <path class="cls-5" d="M164.41,1586.62c-.15.02-.31-.02-.46,0h-4.14s-.43-32.37-.43-32.37c-5.75-3.2-1.95-12.74,4.45-10.54,3.15,1.09,4.78,5.45,3.08,8.35-.64,1.1-2.26,1.71-2.49,3.03v31.52Z"/>
      <path class="cls-24" d="M158.69,1611.75c-.23.25-.67.25-.87.74-1.43,3.46,1.75,4.2,1.52,5.19-6.91,6.03-12.13-2.63-7.36-8.74,1.26-1.61,3.96-3,5.82-3.85,3.29-1.49,11.11-2.73,10.3-7.64-.17-1.04-1.88-1.78-.94-2.33,4.18-.61,8.29-4.1,8.77,2.29.76,9.97-9.54,9.4-15.7,12.88-.89.51-.96.81-1.54,1.46Z"/>
      <path class="cls-26" d="M349.39,1382.27c22.59,38.43,43.37,78.56,64.8,117.68,8.2,14.97,17.36,29.69,25.02,44.93.36.72,2.02,4.58,1.75,4.92-.29.05-.52-.24-.68-.46-2.64-3.6-5.26-10.05-7.51-14.12-27.9-50.63-56.43-101.38-83.38-152.48v-.46Z"/>
      <path class="cls-28" d="M169.78,1620.99c-2.23,1.63-10.01,2.72-10.72,5.2-.3,1.06.55,1.79-.14,2.57-.31.35-2.78,2.32-3.14,2.41-2.02.49-2.85-2.57-2.91-4.29-.04-1.09.46-2.67,1.01-3.6.23-.38,3.05-3.21,3.42-3.46,2.12-1.4,6.1-1.81,8.36-3.39,1.82-1.89-1.18-6.03.11-7.03.27-.21,2.62-.96,3.1-1.04,4.44-.73,4.84,4.94,4.07,8.21-.31,1.3-2.12,3.66-3.17,4.42Z"/>
      <path class="cls-24" d="M156.89,1576.18c1.15,1.16,2.31,5.12.31,5.76-1.55.04-3.39.28-4.89-.03-2.1-.43-4.14-3.88-5.8-.99,1,4.32,5.48,4.2,8.93,5.22.66.2.81-.29.68.92-2.5-.49-5.62,3.81-7.1,3.7-5.29-1.94-8.28-5.42-7.64-11.3s12.01-6.81,15.51-3.29ZM156.58,1577.88h-.92v.92h.92v-.92ZM154.51,1581.1v.46c.3-.15.3-.31,0-.46Z"/>
      <path class="cls-24" d="M169.92,1622.98c-.03,1.35.59,2.47.45,3.85-.55,5.54-6.81,6.67-11,8.6l.44,3.65c-6.6-.07-6.14-4.41-1.82-8.04.25-.21,1.93-1.48,2.14-1.62,2.52-1.6,6.32-1.48,4.74-5.52l5.05-.92Z"/>
      <path class="cls-7" d="M163.49,1637.71c1.28-.77.53-2.6,1.37-3.46.47-.48,3.32-1.56,3.67-1.13.25,1.54.73,2.55.27,4.14-.76,2.59-1.87,2.8-3.93,4.13l-.92.46-9.66,3.22c-.19-.88.44-1.1.96-1.57,1.5-1.36,3.55-2.42,5.27-3.49.26-.38.29-.94.21-1.39l2.76-.92Z"/>
      <path class="cls-8" d="M163.49,1642.77c-.03.15.01.31,0,.46-.21,2.13.16,4.51,0,6.68-.2,2.75-.93,5.72-.92,8.51-.57.71-.85.02-.9-.69-.3-4.11-1.3-8.82-.96-12.91.15-1.87,1.24-1.64,2.79-2.05Z"/>
      <path class="cls-13" d="M159.8,1595.36h4.6s-.21,5.55-.21,5.55c-1.59.67-2.46,1.78-4.39,1.81v-7.36Z"/>
      <path class="cls-29" d="M164.4,1610.09l-.22,5.53c-.57,1.13-3.2,1.49-4.38,1.37l.06-5.03c1.58-.17,2.56-1.94,4.54-1.88Z"/>
      <path class="cls-4" d="M164.87,1641.39c.86.57,1.44-.12,2.62.34.58.22,4.08,2.69,3.36,3.34-2.88.66-4.61-2-7.36-1.84.01-.15-.03-.31,0-.46.02-.13.56-.53.46-.92l.92-.46Z"/>
      <path class="cls-3" d="M160.72,1638.63c-.1-.58-.96-1.64-.4-2.71l3.62-.97-.46,2.76-2.76.92Z"/>
      <path class="cls-4" d="M164.4,1624.36c.5,2.62-2.14,3.06-4.14,3.68l.07-2.23,4.07-1.45Z"/>
      <path class="cls-11" d="M496.19,1593.98c-1.64-.1-3.26.54-4.36-.93-2.36-3.17,1.7-6.29,3.66-3.66,1.02,1.37.68,2.99.7,4.59Z"/>
      <path class="cls-27" d="M511.83,1593.98l.22-4.61,1.88-.91,2.05.68c1.65,3.86-.34,5.33-4.15,4.84Z"/>
      <path class="cls-20" d="M169.01,1577.42l-.23.92c-1.07,1.04-1.34.42-1.15-.92h1.38Z"/>
      <path class="cls-16" d="M321.19,1253.5l33.05-.11,2.3.92-.21,34.79-3,1.14c-9.85-.67-20.68.81-30.41,0-1.12-.09-2.3-.2-3.2-.94-.64-.75-.64-1.59-.71-2.51-.75-9.79.61-20.51,0-30.41.04-1.41.76-2.57,2.18-2.88Z"/>
      <path class="cls-13" d="M341.11,1313.7c.57.56,6.65-1.24,6.87,1.55l-12.6,16.42c-1.06,1.34-2.62,1.29-2.54-.66.08-1.77,2.93-12.14,2.28-12.72l-6.15-.07-.68-1.45,13.5-17.35,1.08.75-1.78,13.51Z"/>
    </g>
  </g>
  <g class="cls-6">
    <path class="cls-9" d="M1786.14,996.2l96.95,56.14c3.9,2.29,8.63,1.6,11.47-1.27.59-.6,1.13-1.24,1.5-2.05,2.42-4.58.56-10.49-4.09-13.26l-62.71-36.33c23.62.9,47.76-.31,71.3-3.45,63.35-8.44,121.17-30.35,171.84-65.41,20.22-13.91,37.96-29.12,53.48-44.8,71.09-71.79,95.96-155.14,104.04-192.42,1.09-5.08-2.23-10.47-7.46-11.84-5.16-1.44-10.36,1.57-11.41,6.73-9.28,43.29-42.59,151.97-150.26,226.21-87.19,60.21-179.74,67.88-234.89,65.63l61.77-33.41c4.54-2.49,5.98-8.31,3.27-13.08-2.75-4.69-8.67-6.49-13.3-4.09l-92.11,49.92c-3.02,1.63-4.74,4.78-4.7,8.26.21,3.49,2.17,6.74,5.29,8.52Z"/>
  </g>
  <g class="cls-21">
    <path class="cls-9" d="M1967.84,1648.52l-103.2,55.82c-4.15,2.27-8.73,1.68-11.13-1.08-.5-.57-.92-1.21-1.18-2-1.75-4.43.9-10.2,5.86-12.95l66.75-36.12c-23.37,1.16-46.96.29-69.69-2.48-61.18-7.43-115.05-28.04-160.06-61.53-17.97-13.29-33.32-27.87-46.43-42.93-60.02-68.97-72.95-149.77-75.74-185.94-.39-4.92,3.65-10.22,8.98-11.62,5.28-1.46,9.98,1.4,10.3,6.41,3.14,42.01,20.86,147.35,116.54,218.26,77.47,57.51,167.5,63.84,222.09,60.96l-56.17-31.75c-4.12-2.36-4.73-8.01-1.43-12.67,3.38-4.61,9.46-6.44,13.66-4.15l83.76,47.42c2.75,1.55,4,4.6,3.48,7.98-.69,3.39-3.07,6.58-6.39,8.36Z"/>
  </g>
  <g class="cls-1">
    <path class="cls-9" d="M805.88,1653.22c-.53-3.38.71-6.41,3.45-7.95l83.43-47.05c4.19-2.28,10.26-.44,13.64,4.17,3.31,4.65,2.72,10.28-1.39,12.63l-55.95,31.49c54.47,3.01,144.27-3.06,221.4-60.17,95.27-70.44,112.66-175.4,115.68-217.27.31-4.98,4.99-7.83,10.26-6.36,5.32,1.41,9.37,6.71,8.99,11.6-2.68,36.05-15.37,116.56-75.06,185.16-13.03,14.98-28.31,29.48-46.2,42.67-44.81,33.27-98.5,53.67-159.52,60.91-22.67,2.7-46.21,3.51-69.52,2.29l66.69,36.19c4.96,2.76,7.62,8.52,5.88,12.93-.26.78-.67,1.42-1.17,1.99-2.38,2.74-6.95,3.32-11.1,1.04l-103.11-55.93c-3.32-1.78-5.7-4.96-6.4-8.35Z"/>
  </g>
  <g class="cls-2">
    <path class="cls-9" d="M1871.59,171.43l-58.74-102.97c-2.33-4.16-9.06-6.37-15.85-5.68-1.41.14-2.82.36-4.2.81-8.21,2.35-12.53,8.29-9.8,13.29l37.97,66.61c-28.7-14.58-60.44-27.74-93.6-38.94-89.22-30.19-186.66-46.06-289.91-46.93-41.11-.41-80.57,1.7-117.76,5.49-170.32,17.35-295.52,71.3-347.68,97.2-7.1,3.54-8.99,9.92-3.96,14.11,4.87,4.21,14.81,4.78,21.94,1.16,60.45-30.15,224.79-99.97,443.91-97.9,177.53,1.6,302.63,49.53,369.48,83.71l-115.36-8.74c-8.51-.62-16.88,3.33-18.86,8.84-1.82,5.47,3.6,10.42,12.13,11.16l172.13,12.94c5.64.43,11.35-1.16,15.22-4.04,3.66-2.99,4.86-6.81,2.94-10.11Z"/>
  </g>
</svg>